<svg width="14" height="14" viewBox="0 0 14 14" fill="none" xmlns="http://www.w3.org/2000/svg">
<path fill-rule="evenodd" clip-rule="evenodd" d="M4.08361 6.41641C4.08361 6.09441 4.34495 5.83307 4.66695 5.83307C4.98895 5.83307 5.25028 6.09441 5.25028 6.41641C5.25028 6.73841 4.98895 6.99974 4.66695 6.99974C4.34495 6.99974 4.08361 6.73841 4.08361 6.41641ZM7.00028 5.83307C6.67828 5.83307 6.41695 6.09441 6.41695 6.41641C6.41695 6.73841 6.67828 6.99974 7.00028 6.99974C7.32228 6.99974 7.58362 6.73841 7.58362 6.41641C7.58362 6.09441 7.32228 5.83307 7.00028 5.83307ZM9.33361 5.83307C9.01161 5.83307 8.75028 6.09441 8.75028 6.41641C8.75028 6.73841 9.01161 6.99974 9.33361 6.99974C9.65561 6.99974 9.91695 6.73841 9.91695 6.41641C9.91695 6.09441 9.65561 5.83307 9.33361 5.83307ZM11.6076 7.17176C11.3119 9.06992 9.78182 10.6443 7.88657 10.9996C6.97132 11.1723 6.03915 11.0737 5.19332 10.7155C4.95357 10.614 4.70565 10.5627 4.4624 10.5627C4.35157 10.5627 4.2419 10.5732 4.13398 10.5948L2.49365 10.9226L2.82207 9.27934C2.8909 8.93809 2.8489 8.57292 2.70132 8.22351C2.34315 7.37767 2.24515 6.44609 2.41723 5.53026C2.77248 3.63501 4.34632 2.10492 6.24507 1.80917C7.7559 1.57409 9.23348 2.05009 10.2998 3.11642C11.3667 4.18334 11.8433 5.66151 11.6076 7.17176ZM11.1252 2.2916C9.79226 0.959263 7.94893 0.364846 6.06535 0.655929C3.6871 1.02693 1.71543 2.9426 1.27035 5.31501C1.05568 6.45718 1.17935 7.62035 1.62676 8.67793C1.68335 8.81268 1.70085 8.9381 1.67868 9.05068L1.17818 11.552C1.13968 11.7433 1.19976 11.9411 1.33801 12.0788C1.44826 12.1896 1.59701 12.2497 1.75043 12.2497C1.78835 12.2497 1.82626 12.2462 1.86476 12.2386L4.36318 11.7387C4.50668 11.7113 4.64551 11.7515 4.73826 11.79C5.79701 12.2374 6.96018 12.3605 8.10118 12.1464C10.4742 11.7013 12.3898 9.72968 12.7608 7.35143C13.0537 5.46901 12.4581 3.62451 11.1252 2.2916Z" fill="#373737"/>
<mask id="mask0_332_8591" style="mask-type:alpha" maskUnits="userSpaceOnUse" x="1" y="0" width="12" height="13">
<path fill-rule="evenodd" clip-rule="evenodd" d="M4.08361 6.41641C4.08361 6.09441 4.34495 5.83307 4.66695 5.83307C4.98895 5.83307 5.25028 6.09441 5.25028 6.41641C5.25028 6.73841 4.98895 6.99974 4.66695 6.99974C4.34495 6.99974 4.08361 6.73841 4.08361 6.41641ZM7.00028 5.83307C6.67828 5.83307 6.41695 6.09441 6.41695 6.41641C6.41695 6.73841 6.67828 6.99974 7.00028 6.99974C7.32228 6.99974 7.58362 6.73841 7.58362 6.41641C7.58362 6.09441 7.32228 5.83307 7.00028 5.83307ZM9.33361 5.83307C9.01161 5.83307 8.75028 6.09441 8.75028 6.41641C8.75028 6.73841 9.01161 6.99974 9.33361 6.99974C9.65561 6.99974 9.91695 6.73841 9.91695 6.41641C9.91695 6.09441 9.65561 5.83307 9.33361 5.83307ZM11.6076 7.17176C11.3119 9.06992 9.78182 10.6443 7.88657 10.9996C6.97132 11.1723 6.03915 11.0737 5.19332 10.7155C4.95357 10.614 4.70565 10.5627 4.4624 10.5627C4.35157 10.5627 4.2419 10.5732 4.13398 10.5948L2.49365 10.9226L2.82207 9.27934C2.8909 8.93809 2.8489 8.57292 2.70132 8.22351C2.34315 7.37767 2.24515 6.44609 2.41723 5.53026C2.77248 3.63501 4.34632 2.10492 6.24507 1.80917C7.7559 1.57409 9.23348 2.05009 10.2998 3.11642C11.3667 4.18334 11.8433 5.66151 11.6076 7.17176ZM11.1252 2.2916C9.79226 0.959263 7.94893 0.364846 6.06535 0.655929C3.6871 1.02693 1.71543 2.9426 1.27035 5.31501C1.05568 6.45718 1.17935 7.62035 1.62676 8.67793C1.68335 8.81268 1.70085 8.9381 1.67868 9.05068L1.17818 11.552C1.13968 11.7433 1.19976 11.9411 1.33801 12.0788C1.44826 12.1896 1.59701 12.2497 1.75043 12.2497C1.78835 12.2497 1.82626 12.2462 1.86476 12.2386L4.36318 11.7387C4.50668 11.7113 4.64551 11.7515 4.73826 11.79C5.79701 12.2374 6.96018 12.3605 8.10118 12.1464C10.4742 11.7013 12.3898 9.72968 12.7608 7.35143C13.0537 5.46901 12.4581 3.62451 11.1252 2.2916Z" fill="white"/>
</mask>
<g mask="url(#mask0_332_8591)">
<rect width="14" height="14" fill="#373737"/>
</g>
</svg>
