<svg width="10" height="12" viewBox="0 0 10 12" fill="none" xmlns="http://www.w3.org/2000/svg">
<path fill-rule="evenodd" clip-rule="evenodd" d="M6.16675 3.08333C6.16675 2.43992 5.6435 1.91667 5.00008 1.91667C4.35666 1.91667 3.83341 2.43992 3.83341 3.08333C3.83341 3.72675 4.35666 4.25 5.00008 4.25C5.6435 4.25 6.16675 3.72675 6.16675 3.08333ZM7.33342 3.08333C7.33342 4.37017 6.28692 5.41667 5.00008 5.41667C3.71325 5.41667 2.66675 4.37017 2.66675 3.08333C2.66675 1.7965 3.71325 0.75 5.00008 0.75C6.28692 0.75 7.33342 1.7965 7.33342 3.08333ZM0.916748 10.6667C0.916748 8.415 2.749 6.58333 5.00008 6.58333C7.25117 6.58333 9.08342 8.415 9.08342 10.6667C9.08342 10.9887 8.82267 11.25 8.50008 11.25C8.1775 11.25 7.91675 10.9887 7.91675 10.6667C7.91675 9.05842 6.60833 7.75 5.00008 7.75C3.39183 7.75 2.08341 9.05842 2.08341 10.6667C2.08341 10.9887 1.82266 11.25 1.50008 11.25C1.1775 11.25 0.916748 10.9887 0.916748 10.6667Z" fill="#373737"/>
</svg>
