<svg version="1.2" xmlns="http://www.w3.org/2000/svg" viewBox="0 0 484 310" width="484" height="310">
	<title>contact-svg</title>
	<defs>
		<linearGradient id="g1" x1="367.3" y1="307.2" x2="367.3" y2="207.5" gradientUnits="userSpaceOnUse">
			<stop offset="0" stop-color="#808080" stop-opacity=".3"/>
			<stop offset=".5" stop-color="#808080" stop-opacity=".1"/>
			<stop offset="1" stop-color="#808080" stop-opacity=".1"/>
		</linearGradient>
		<linearGradient id="g2" x1="35912.6" y1="38816.7" x2="35912.6" y2="32914.9" gradientUnits="userSpaceOnUse">
			<stop offset="0" stop-color="#808080" stop-opacity=".3"/>
			<stop offset=".5" stop-color="#808080" stop-opacity=".1"/>
			<stop offset="1" stop-color="#808080" stop-opacity=".1"/>
		</linearGradient>
	</defs>
	<style>
		.s0 { opacity: .1;fill: #3f3d56 } 
		.s1 { opacity: .1;fill: #ff5300 } 
		.s2 { opacity: .1;fill: #000000 } 
		.s3 { fill: none;stroke: #3f3d56;stroke-width: 4 } 
		.s4 { fill: #ff5300 } 
		.s5 { fill: #3f3d56 } 
		.s6 { fill: url(#g1) } 
		.s7 { fill: #be6f72 } 
		.s8 { fill: #ff6f61 } 
		.s9 { opacity: .1;fill: none;stroke: #000000 } 
		.s10 { fill: url(#g2) } 
		.s11 { fill: #2f2e41 } 
		.s12 { fill: #fbbebe } 
		.s13 { fill: #e8e8f0 } 
		.s14 { fill: #f86d70 } 
	</style>
	<g id="Layer" style="opacity: .1">
		<ellipse id="Layer" class="s0" cx="201.5" cy="186.8" rx="6.6" ry="8.6"/>
		<path id="Layer" class="s0" d="m206.6 149.9c0.9 1.6 1.4 3.4 1.4 5.3 0 1.8-0.5 3.6-1.4 5.2 0.9 1.6 1.4 3.5 1.4 5.3 0 1.9-0.5 3.7-1.4 5.3 0.9 1.6 1.4 3.4 1.4 5.3 0 4.7-2.9 8.6-6.6 8.6-3.6 0-6.5-3.9-6.5-8.6 0-1.9 0.4-3.7 1.3-5.3-0.9-1.6-1.3-3.4-1.3-5.3 0-1.8 0.4-3.7 1.3-5.3-0.9-1.6-1.3-3.4-1.3-5.2 0-1.9 0.4-3.7 1.3-5.3-0.9-1.6-1.3-3.4-1.3-5.3 0-4.8 2.9-8.6 6.6-8.6 3.6 0 6.5 3.8 6.5 8.6 0 1.8-0.4 3.7-1.4 5.3z"/>
		<ellipse id="Layer" class="s0" cx="201.5" cy="134.1" rx="6.6" ry="8.6"/>
		<ellipse id="Layer" class="s0" cx="201.5" cy="123.5" rx="6.6" ry="8.6"/>
		<path id="Layer" class="s1" d="m176.9 51.3q-1.4-1.7-2.5-3.6l17.3-2.9-18.7 0.2c-1.7-3.9-2.7-8.2-2.8-12.5-0.1-4.3 0.7-8.6 2.3-12.6l25 13.1-23.1-17.1c2.2-3.7 5.1-7 8.5-9.7 3.5-2.6 7.5-4.4 11.7-5.4 4.2-1 8.6-1.1 12.9-0.3 4.2 0.8 8.3 2.5 11.9 4.9 3.6 2.5 6.6 5.6 8.9 9.3 2.4 3.7 3.9 7.8 4.5 12.1 0.7 4.3 0.4 8.7-0.7 12.9-1.1 4.2-3.1 8.2-5.8 11.6q2.1 2.7 3.6 5.7l-22.4 11.8 23.9-8.1c1.7 5 2.1 10.3 1.2 15.5-0.9 5.2-3.1 10-6.3 14.2 3.7 4.6 5.9 10.2 6.6 16.1 0.6 5.9-0.4 11.9-3 17.2-2.6 5.3-6.6 9.8-11.6 13-5 3.1-10.8 4.8-16.7 4.8-5.9 0-11.7-1.7-16.7-4.8-5-3.2-9-7.7-11.6-13-2.6-5.3-3.6-11.3-3-17.2 0.7-5.9 2.9-11.5 6.6-16.1-4.4-5.6-6.7-12.5-6.7-19.6 0-7 2.3-13.9 6.7-19.5z"/>
		<path id="Layer" class="s2" d="m233 70.8c0 7.1-2.3 14-6.7 19.6 3.7 4.6 5.9 10.2 6.6 16.1 0.6 5.9-0.4 11.9-3 17.2-2.6 5.3-6.6 9.8-11.6 13-5 3.1-10.8 4.8-16.7 4.8-5.9 0-11.7-1.7-16.7-4.8-5-3.2-9-7.7-11.6-13-2.6-5.3-3.6-11.3-3-17.2 0.7-5.9 2.9-11.5 6.6-16.1-4.2-5.4 56.1-23.1 56.1-19.6z"/>
	</g>
	<g id="Layer" style="opacity: .1">
		<ellipse id="Layer" class="s0" cx="278.4" cy="167.5" rx="4.9" ry="6.4"/>
		<path id="Layer" class="s0" d="m283.3 143.9c0 1.3-0.4 2.7-1 3.9 0.6 1.2 1 2.6 1 3.9 0 1.4-0.4 2.8-1 4 0.6 1.2 1 2.5 1 3.9 0 3.6-2.2 6.5-4.9 6.5-2.7 0-4.9-2.9-4.9-6.5 0-1.4 0.3-2.7 1-3.9-0.7-1.2-1-2.6-1-4 0-1.3 0.3-2.7 1-3.9-0.7-1.2-1-2.6-1-3.9 0-1.4 0.3-2.8 1-4-0.7-1.2-1-2.5-1-3.9 0-3.6 2.2-6.5 4.9-6.5 2.7 0 4.9 2.9 4.9 6.5 0 1.4-0.4 2.7-1 3.9 0.6 1.2 1 2.6 1 4z"/>
		<ellipse id="Layer" class="s0" cx="278.4" cy="128.1" rx="4.9" ry="6.4"/>
		<ellipse id="Layer" class="s0" cx="278.4" cy="120.2" rx="4.9" ry="6.4"/>
		<path id="Layer" class="s1" d="m260 66.2q-1-1.2-1.8-2.7l12.9-2.1-13.9 0.1c-1.4-2.9-2.1-6.1-2.2-9.3-0.1-3.2 0.5-6.4 1.7-9.4l18.7 9.8-17.2-12.8c1.6-2.8 3.7-5.2 6.3-7.2 2.6-1.9 5.6-3.3 8.7-4 3.2-0.7 6.5-0.8 9.6-0.2 3.2 0.6 6.2 1.8 8.9 3.7 2.7 1.8 4.9 4.1 6.7 6.9 1.7 2.7 2.8 5.8 3.3 9 0.5 3.2 0.4 6.5-0.5 9.6-0.8 3.2-2.2 6.1-4.2 8.6q1.5 2 2.6 4.3l-16.7 8.8 17.9-6c1.2 3.7 1.5 7.7 0.9 11.5-0.7 3.9-2.3 7.5-4.7 10.6 2.7 3.5 4.4 7.7 4.9 12.1 0.4 4.4-0.3 8.9-2.3 12.8-1.9 4-4.9 7.4-8.6 9.7-3.8 2.4-8.1 3.6-12.5 3.6-4.4 0-8.7-1.2-12.5-3.6-3.7-2.3-6.7-5.7-8.6-9.7-2-3.9-2.7-8.4-2.2-12.8 0.4-4.4 2.1-8.6 4.9-12.1-3.3-4.1-5.1-9.3-5.1-14.6 0-5.3 1.8-10.4 5.1-14.6z"/>
		<path id="Layer" class="s2" d="m302 80.8c0 5.3-1.8 10.5-5 14.6 2.7 3.5 4.4 7.7 4.9 12.1 0.4 4.4-0.3 8.9-2.3 12.8-1.9 4-4.9 7.4-8.6 9.7-3.8 2.4-8.1 3.6-12.5 3.6-4.4 0-8.7-1.2-12.5-3.6-3.7-2.3-6.7-5.7-8.6-9.7-2-3.9-2.7-8.4-2.3-12.8 0.5-4.4 2.2-8.6 5-12.1-3.2-4 41.9-17.2 41.9-14.6z"/>
	</g>
	<g id="Layer" style="opacity: .1">
		<ellipse id="Layer" class="s0" cx="460.5" cy="164.9" rx="4.9" ry="6.4"/>
		<path id="Layer" class="s0" d="m456.7 137.3c-0.7-1.2-1.1-2.6-1.1-4 0-3.5 2.2-6.4 4.9-6.4 2.8 0 5 2.9 5 6.4 0 1.4-0.4 2.8-1.1 4 0.7 1.2 1.1 2.5 1.1 3.9 0 1.4-0.4 2.8-1.1 4 0.7 1.2 1.1 2.5 1.1 3.9 0 1.4-0.4 2.7-1.1 3.9 0.7 1.2 1.1 2.6 1.1 4 0 3.6-2.2 6.4-5 6.4-2.7 0-4.9-2.9-4.9-6.4 0-1.4 0.4-2.8 1.1-4-0.7-1.2-1.1-2.5-1.1-3.9 0-1.4 0.4-2.7 1.1-3.9-0.7-1.2-1.1-2.6-1.1-4 0-1.4 0.4-2.7 1.1-3.9z"/>
		<ellipse id="Layer" class="s0" cx="460.5" cy="125.5" rx="4.9" ry="6.4"/>
		<ellipse id="Layer" class="s0" cx="460.5" cy="117.6" rx="4.9" ry="6.4"/>
		<path id="Layer" class="s1" d="m478.9 63.6c3.3 4.2 5 9.3 5 14.6 0 5.3-1.7 10.4-5 14.6 2.7 3.5 4.4 7.7 4.9 12.1 0.5 4.4-0.3 8.8-2.2 12.8-1.9 4-4.9 7.4-8.7 9.7-3.7 2.4-8 3.6-12.4 3.6-4.5 0-8.8-1.2-12.5-3.6-3.8-2.3-6.8-5.7-8.7-9.7-1.9-4-2.7-8.4-2.2-12.8 0.5-4.4 2.2-8.6 4.9-12.1-2.4-3.1-4-6.7-4.7-10.6-0.7-3.9-0.3-7.9 0.9-11.6l17.8 6-16.7-8.7q1.1-2.3 2.7-4.3c-2-2.5-3.5-5.5-4.3-8.6-0.8-3.2-1-6.4-0.5-9.6 0.5-3.2 1.6-6.3 3.4-9.1 1.7-2.7 4-5.1 6.6-6.9 2.7-1.8 5.7-3 8.9-3.6 3.2-0.6 6.4-0.6 9.6 0.2 3.1 0.7 6.1 2.1 8.7 4 2.6 1.9 4.8 4.4 6.4 7.2l-17.3 12.7 18.7-9.7c1.2 3 1.8 6.2 1.7 9.4-0.1 3.2-0.8 6.4-2.1 9.3l-14-0.1 12.9 2.1q-0.8 1.4-1.8 2.7z"/>
		<path id="Layer" class="s2" d="m478.9 92.8c2.7 3.5 4.4 7.7 4.9 12.1 0.5 4.4-0.3 8.8-2.2 12.8-2 4-5 7.4-8.7 9.7-3.7 2.4-8.1 3.6-12.5 3.6-4.4 0-8.7-1.2-12.4-3.6-3.8-2.3-6.8-5.7-8.7-9.7-1.9-4-2.7-8.4-2.2-12.8 0.4-4.4 2.1-8.6 4.9-12.1-3.3-4.2-5.1-9.3-5.1-14.6 0-2.6 45.1 10.6 42 14.6z"/>
	</g>
	<g id="Layer" style="opacity: .1">
		<ellipse id="Layer" class="s0" cx="23.9" cy="164.9" rx="4.9" ry="6.4"/>
		<path id="Layer" class="s0" d="m28.8 141.2c0 1.4-0.4 2.8-1.1 4 0.7 1.2 1.1 2.5 1.1 3.9 0 1.4-0.4 2.7-1.1 3.9 0.7 1.2 1.1 2.6 1.1 4 0 3.5-2.2 6.4-4.9 6.4-2.8 0-4.9-2.8-4.9-6.4-0.1-1.4 0.3-2.8 1-4-0.7-1.2-1-2.5-1-3.9 0-1.4 0.3-2.7 1-3.9-0.7-1.2-1-2.6-1-4 0-1.4 0.3-2.7 1-3.9-0.7-1.2-1.1-2.6-1-4 0-3.5 2.1-6.4 4.9-6.4 2.7 0 4.9 2.9 4.9 6.4 0 1.4-0.4 2.8-1.1 4 0.7 1.2 1.1 2.5 1.1 3.9z"/>
		<ellipse id="Layer" class="s0" cx="23.9" cy="125.5" rx="4.9" ry="6.4"/>
		<ellipse id="Layer" class="s0" cx="23.9" cy="117.6" rx="4.9" ry="6.4"/>
		<path id="Layer" class="s1" d="m5.5 63.6q-1-1.3-1.8-2.7l12.9-2.1-14 0.1c-1.3-2.9-2-6.1-2.1-9.3-0.1-3.2 0.5-6.4 1.7-9.4l18.7 9.7-17.3-12.7c1.6-2.8 3.8-5.3 6.4-7.2 2.6-1.9 5.6-3.3 8.7-4 3.2-0.8 6.4-0.8 9.6-0.2 3.2 0.6 6.2 1.8 8.9 3.6 2.6 1.8 4.9 4.2 6.6 6.9 1.8 2.8 2.9 5.9 3.4 9.1 0.5 3.2 0.3 6.4-0.5 9.6-0.8 3.1-2.3 6.1-4.3 8.6q1.6 2 2.7 4.3l-16.7 8.7 17.8-6c1.3 3.7 1.6 7.7 0.9 11.6-0.6 3.9-2.3 7.5-4.7 10.6 2.8 3.5 4.5 7.7 4.9 12.1 0.5 4.4-0.3 8.8-2.2 12.8-1.9 4-4.9 7.4-8.6 9.7-3.8 2.4-8.1 3.6-12.5 3.6-4.4 0-8.8-1.2-12.5-3.6-3.7-2.3-6.7-5.7-8.7-9.7-1.9-4-2.7-8.4-2.2-12.8 0.5-4.4 2.2-8.6 4.9-12.1-3.2-4.2-5-9.3-5-14.6 0-5.3 1.8-10.4 5-14.6z"/>
		<path id="Layer" class="s2" d="m47.5 78.2c0 5.3-1.8 10.4-5.1 14.6 2.8 3.5 4.5 7.7 4.9 12.1 0.5 4.4-0.3 8.8-2.2 12.8-1.9 4-4.9 7.4-8.7 9.7-3.7 2.4-8 3.6-12.4 3.6-4.4 0-8.8-1.2-12.5-3.6-3.7-2.3-6.7-5.7-8.7-9.7-1.9-4-2.7-8.4-2.2-12.8 0.5-4.4 2.2-8.6 4.9-12.1-3.1-4 42-17.2 42-14.6z"/>
	</g>
	<ellipse id="Layer" class="s1" cx="235.6" cy="262.9" rx="235.5" ry="5.4"/>
	<ellipse id="Layer" class="s1" cx="235.6" cy="304.6" rx="235.5" ry="5.4"/>
	<ellipse id="Layer" class="s1" cx="235.6" cy="174.5" rx="235.5" ry="5.4"/>
	<ellipse id="Layer" class="s1" cx="235.6" cy="218.7" rx="235.5" ry="5.4"/>
	<path id="Layer" class="s1" d="m391.4 40.9c-2.1-0.3-4.2-0.1-6.1 0.7-1.2 0.5-2.4 0.8-3.7 0.8-1.3 0-2.5-0.3-3.7-0.8-1.3-0.6-2.8-0.9-4.3-0.9-1.5 0.1-3 0.4-4.3 1.1-0.8 0.4-1.6 0.6-2.5 0.6-3.5 0-6.4-3.5-7-8.2q1-0.8 1.7-1.9c2-3.3 5.2-5.5 8.8-5.5 3.6 0 6.7 2.1 8.8 5.4 0.6 1 1.4 1.8 2.5 2.4 1 0.6 2.1 0.9 3.3 0.8h0.1c2.8 0 5.2 2.3 6.4 5.5z"/>
	<path id="Layer" class="s1" d="m403.5 32.4c0 5.5-3.2 10-7.1 10-0.9 0-1.7-0.2-2.5-0.6-1.3-0.6-2.7-1-4.2-1-1.5-0.1-3 0.2-4.3 0.8-1.2 0.5-2.4 0.8-3.7 0.8-1.3 0-2.5-0.3-3.7-0.8-1.3-0.6-2.8-0.9-4.3-0.8-1.5 0-3 0.3-4.3 1-0.8 0.4-1.6 0.6-2.5 0.6-4 0-7.1-4.5-7.1-10 0-5.5 3.1-10 7.1-10h0.2c1.1 0 2.3-0.3 3.3-0.8 1-0.6 1.9-1.4 2.5-2.4 2.1-3.3 5.2-5.4 8.8-5.4 3 0 5.7 1.4 7.7 3.9l-2.2 3.9 3.5-2.2c0.8 1.2 2 2.1 3.4 2.6l-0.9 1.5 2-1.2q0.6 0.1 1.1 0.1h0.1c1.3 0 2.5 0.4 3.5 1.2l-3.5 6.3 5.7-3.6c1 1.8 1.5 3.9 1.4 6.1z"/>
	<path id="Layer" class="s1" d="m150.6 37.8c-1.4-0.3-2.9-0.1-4.3 0.5q-1.2 0.5-2.5 0.5-1.4 0-2.6-0.5c-1-0.4-2-0.6-3-0.6-1.1 0-2.1 0.2-3.1 0.7q-0.8 0.4-1.7 0.4c-2.4 0-4.5-2.4-4.9-5.7q0.7-0.6 1.2-1.3c1.5-2.4 3.7-3.9 6.2-3.9 2.5 0 4.7 1.5 6.1 3.8 0.5 0.7 1.1 1.3 1.8 1.7 0.7 0.4 1.5 0.6 2.3 0.6h0.1c1.9-0.1 3.6 1.5 4.4 3.8z"/>
	<path id="Layer" class="s1" d="m159.1 31.9c0 3.8-2.2 7-5 7q-0.9 0-1.7-0.4c-0.9-0.5-2-0.7-3-0.8-1 0-2 0.2-3 0.6q-1.2 0.6-2.6 0.6-1.3 0-2.5-0.6c-1-0.4-2-0.6-3.1-0.6-1 0-2 0.3-3 0.7q-0.8 0.4-1.7 0.5c-2.8 0-5-3.2-5-7.1 0-3.8 2.2-7 5-7h0.1c0.8 0 1.6-0.2 2.4-0.5 0.7-0.4 1.3-1 1.7-1.7 1.4-2.3 3.7-3.8 6.2-3.8 1 0 2 0.3 3 0.7 0.9 0.5 1.7 1.2 2.3 2l-1.5 2.8 2.4-1.5c0.6 0.8 1.4 1.4 2.4 1.8l-0.6 1 1.3-0.9q0.5 0.1 0.9 0.1c0.9 0 1.7 0.3 2.4 0.9l-2.4 4.4 4-2.6c0.7 1.4 1 2.9 1 4.4z"/>
	<path id="Layer" class="s1" d="m84.9 79.4h0.1c0.8 0 1.6-0.2 2.3-0.6 0.7-0.4 1.3-1 1.7-1.7 1.5-2.3 3.7-3.7 6.2-3.7 2.5 0 4.7 1.5 6.1 3.8q0.5 0.8 1.3 1.3c-0.4 3.3-2.5 5.8-4.9 5.8q-1 0-1.8-0.5c-0.9-0.4-1.9-0.7-3-0.7-1 0-2.1 0.2-3 0.6q-1.2 0.6-2.6 0.6-1.3 0-2.6-0.6c-1.3-0.6-2.8-0.7-4.2-0.5 0.8-2.2 2.5-3.8 4.4-3.8z"/>
	<path id="Layer" class="s1" d="m73 73l4 2.5-2.5-4.4c0.7-0.5 1.6-0.8 2.4-0.8h0.1q0.4 0 0.8-0.1l1.4 0.9-0.6-1.1c0.9-0.3 1.8-1 2.3-1.8l2.4 1.5-1.5-2.7c0.7-0.9 1.5-1.5 2.4-2 1-0.5 2-0.7 3-0.8 2.5 0 4.8 1.5 6.2 3.9 0.4 0.7 1 1.2 1.7 1.6 0.8 0.4 1.6 0.6 2.4 0.6h0.1c2.8 0 5 3.1 5 7 0 3.9-2.2 7-5 7q-0.9 0-1.7-0.4c-1-0.5-2-0.7-3-0.8-1.1 0-2.1 0.2-3.1 0.7q-1.2 0.5-2.6 0.5-1.3 0-2.5-0.5c-1-0.4-2-0.6-3-0.6-1.1 0-2.1 0.3-3 0.7q-0.8 0.4-1.7 0.4c-2.8 0-5-3.1-5-7-0.1-1.5 0.3-3 1-4.3z"/>
	<path id="Layer" class="s3" d="m308.1 261.1c1.5-2.9-0.2-6.3-2.2-8.8-2-2.5-4.4-5.1-4.3-8.3 0.1-4.5 4.9-7.2 8.8-9.7 2.8-1.8 5.5-3.9 7.8-6.3q1.5-1.4 2.5-3.3c0.8-1.8 0.7-3.8 0.7-5.8q-0.3-9.8-1-19.5"/>
	<path id="Layer" class="s4" d="m326.6 203.3c-0.8 1.3-2.1 2.2-3.5 2.8-1.4 0.5-2.9 0.5-4.4 0.1-1.4-0.4-2.7-1.2-3.6-2.4-0.9-1.2-1.5-2.7-1.5-4.2-0.1-1.5 0.3-3 1.2-4.2 0.8-1.3 2.1-2.2 3.5-2.8 1.4-0.5 2.9-0.5 4.4-0.1l-0.1 3.8 1.6-3.1c1 0.6 1.9 1.4 2.5 2.5 0.6 1 1 2.1 1.1 3.3 0 1.5-0.4 3-1.2 4.3z"/>
	<path id="Layer" class="s4" d="m315.1 247.3c-0.7 1.4-1.9 2.5-3.3 3.2-1.4 0.7-3 0.8-4.5 0.5-1.5-0.3-2.9-1.1-3.9-2.3-1-1.2-1.6-2.7-1.7-4.3-0.1-1 0.1-2 0.5-2.9 0.5-1.3 1.4-2.5 2.6-3.3 1.2-0.8 2.6-1.2 4-1.2 1.4 0 2.8 0.4 4 1.3 1.2 0.8 2.1 1.9 2.6 3.3l-4.4 3.6 4.9-1.1c0 1.1-0.3 2.2-0.8 3.2z"/>
	<path id="Layer" class="s4" d="m311.6 233.5c-1.8 0-3.5-0.5-4.8-1.6-1.4-1.1-2.3-2.7-2.6-4.4-0.2-1.8 0.1-3.5 1.1-5 0.9-1.5 2.4-2.6 4-3v2.9l1.6-3.2c1.9-0.1 3.7 0.6 5.1 1.9 1.4 1.2 2.2 3 2.3 4.9 0.1 1.9-0.5 3.7-1.8 5.1-1.3 1.4-3 2.3-4.9 2.4z"/>
	<path id="Layer" class="s4" d="m328.8 221.9c-1.1 0.1-2.2-0.1-3.2-0.5-1-0.5-1.9-1.2-2.6-2-0.7-0.9-1.2-1.9-1.5-2.9-0.2-1.1-0.2-2.2 0-3.3 0.3-1.1 0.8-2.1 1.5-3 0.7-0.8 1.6-1.5 2.6-1.9 1-0.5 2.1-0.7 3.2-0.6 1.1 0.1 2.2 0.4 3.2 0.9l-1.3 3.5 2.6-2.5c1 0.9 1.7 2.1 2.1 3.5 0.3 1.4 0.2 2.8-0.3 4.1-0.4 1.4-1.3 2.5-2.4 3.3-1.2 0.9-2.5 1.4-3.9 1.4z"/>
	<path id="Layer" class="s2" d="m327.6 200.9c-0.2 1-0.6 1.9-1.2 2.7-0.6 0.8-1.4 1.5-2.3 2-0.9 0.5-1.8 0.8-2.9 0.9-1 0.1-2-0.1-2.9-0.4-1-0.3-1.8-0.9-2.6-1.6-0.7-0.7-1.3-1.5-1.6-2.5-0.4-0.9-0.6-1.9-0.5-2.9 0-1.1 0.3-2.1 0.7-3 0.8 0.5 1.4 1 1.8 1.7q0.6 1.2 1.3 2.4c1.1 1.2 2.9 1.6 4.5 1.5 1.7-0.1 3.3-0.6 4.9-0.8q0.4 0 0.8 0z"/>
	<path id="Layer" class="s2" d="m328.8 221.9c-1.2 0.1-2.4-0.2-3.5-0.7-1.1-0.6-2-1.4-2.7-2.4-0.7-1.1-1.1-2.2-1.2-3.5-0.1-1.2 0.1-2.4 0.7-3.5q0.8 0.5 1.4 1.4 0.6 1.2 1.4 2.4c1.1 1.3 3 1.7 4.7 1.6 1.7-0.1 3.4-0.6 5.1-0.7 0.2 0 0.5 0 0.7-0.1-0.4 1.6-1.2 2.9-2.4 3.9-1.2 1-2.6 1.6-4.2 1.6z"/>
	<path id="Layer" class="s2" d="m311.6 233.5c-1.2 0-2.4-0.2-3.5-0.8-1.1-0.5-2-1.3-2.7-2.3-0.7-1.1-1.1-2.2-1.2-3.4-0.1-1.2 0.1-2.5 0.6-3.6q0.9 0.6 1.5 1.5 0.7 1.2 1.5 2.4c1.2 1.3 3.2 1.8 5 1.7 1.9-0.1 3.5-0.5 5.2-0.6-0.4 1.4-1.2 2.7-2.4 3.6-1.2 0.9-2.6 1.4-4 1.5z"/>
	<path id="Layer" class="s2" d="m315.1 247.3c-0.7 1.4-1.9 2.5-3.3 3.2-1.4 0.7-3 0.8-4.5 0.5-1.5-0.3-2.9-1.1-3.9-2.3-1-1.2-1.6-2.7-1.7-4.3-0.1-1 0.1-2 0.5-2.9q0.8 0.6 1.5 1.4c0.7 0.8 1.1 1.7 1.9 2.5 1.5 1.5 3.8 2.1 5.9 2.1q1.8 0 3.6-0.2z"/>
	<path id="Layer" class="s3" d="m18.5 219.3c1.5-2.8-0.2-6.2-2.1-8.7-2-2.5-4.4-5.1-4.4-8.3 0.1-4.5 5-7.3 8.8-9.7 2.9-1.8 5.5-3.9 7.9-6.3q1.5-1.5 2.4-3.3c0.8-1.8 0.8-3.8 0.7-5.8q-0.2-9.8-0.9-19.6"/>
	<path id="Layer" class="s4" d="m37 161.6c-0.8 1.2-2 2.2-3.4 2.7-1.4 0.6-3 0.6-4.4 0.2-1.5-0.4-2.7-1.3-3.7-2.4-0.9-1.2-1.4-2.7-1.5-4.2 0-1.5 0.4-3 1.2-4.3 0.9-1.2 2.1-2.2 3.5-2.7 1.4-0.5 3-0.5 4.4-0.1v3.8l1.6-3.1c1 0.6 1.9 1.4 2.5 2.4 0.6 1.1 1 2.2 1 3.4 0.1 1.5-0.3 3-1.2 4.3z"/>
	<path id="Layer" class="s4" d="m25.5 205.6c-0.7 1.4-1.8 2.5-3.2 3.2-1.4 0.6-3 0.8-4.6 0.5-1.5-0.3-2.9-1.2-3.9-2.3-1-1.2-1.6-2.7-1.7-4.3 0-1 0.1-2 0.5-2.9 0.5-1.3 1.4-2.5 2.6-3.3 1.2-0.8 2.6-1.2 4.1-1.2 1.4 0 2.8 0.4 4 1.2 1.2 0.9 2.1 2 2.6 3.4l-4.5 3.6 4.9-1.2c0 1.2-0.2 2.3-0.8 3.3z"/>
	<path id="Layer" class="s4" d="m22 191.7c-1.7 0.1-3.4-0.4-4.8-1.5-1.3-1.1-2.2-2.7-2.5-4.4-0.3-1.8 0.1-3.5 1-5 1-1.5 2.4-2.6 4.1-3l-0.1 2.9 1.7-3.2q1.4-0.1 2.7 0.4 1.3 0.5 2.4 1.4 1 1 1.6 2.3 0.6 1.3 0.7 2.7 0 1.4-0.4 2.7-0.5 1.4-1.5 2.4-0.9 1.1-2.2 1.7-1.3 0.6-2.7 0.6z"/>
	<path id="Layer" class="s4" d="m39.3 180.2c-1.1 0.1-2.2-0.1-3.2-0.6-1-0.4-1.9-1.1-2.6-1.9-0.8-0.9-1.2-1.9-1.5-3-0.3-1-0.3-2.2 0-3.2 0.3-1.1 0.8-2.1 1.5-3 0.7-0.8 1.6-1.5 2.6-1.9 1-0.5 2.1-0.7 3.2-0.6 1.1 0 2.2 0.3 3.1 0.9l-1.2 3.5 2.5-2.6c1 1 1.8 2.2 2.1 3.6 0.3 1.4 0.3 2.8-0.2 4.1-0.5 1.3-1.3 2.5-2.5 3.3-1.1 0.9-2.4 1.3-3.8 1.4z"/>
	<path id="Layer" class="s2" d="m38 159.2c-0.2 1-0.6 1.9-1.2 2.7-0.6 0.8-1.4 1.5-2.2 2-0.9 0.5-1.9 0.8-2.9 0.9-1 0.1-2-0.1-3-0.4-0.9-0.3-1.8-0.9-2.5-1.6-0.7-0.7-1.3-1.6-1.7-2.5-0.4-0.9-0.5-1.9-0.5-3 0.1-1 0.3-2 0.8-2.9 0.7 0.4 1.3 1 1.8 1.7q0.6 1.2 1.3 2.3c1 1.3 2.8 1.7 4.5 1.6 1.6-0.1 3.2-0.6 4.8-0.8q0.5 0 0.8 0z"/>
	<path id="Layer" class="s2" d="m39.3 180.2c-1.3 0.1-2.5-0.2-3.6-0.7-1.1-0.6-2-1.4-2.7-2.4-0.6-1.1-1.1-2.3-1.1-3.5-0.1-1.2 0.1-2.4 0.6-3.6q0.9 0.6 1.4 1.5 0.7 1.2 1.5 2.3c1.1 1.3 2.9 1.8 4.7 1.7 1.7-0.1 3.3-0.6 5-0.7 0.3 0 0.5-0.1 0.8-0.1-0.4 1.5-1.2 2.9-2.4 3.9-1.2 1-2.7 1.6-4.2 1.6z"/>
	<path id="Layer" class="s2" d="m22 191.7c-1.2 0.1-2.4-0.2-3.5-0.7-1-0.5-2-1.4-2.7-2.4-0.6-1-1.1-2.1-1.2-3.3-0.1-1.3 0.1-2.5 0.6-3.6q0.9 0.6 1.5 1.5 0.7 1.2 1.6 2.4c1.2 1.3 3.2 1.8 5 1.7 1.8-0.1 3.5-0.5 5.2-0.6-0.4 1.4-1.3 2.7-2.4 3.6-1.2 0.9-2.6 1.4-4.1 1.4z"/>
	<path id="Layer" class="s2" d="m25.5 205.6c-0.7 1.4-1.8 2.5-3.2 3.2-1.4 0.6-3 0.8-4.6 0.5-1.5-0.3-2.9-1.2-3.9-2.3-1-1.2-1.6-2.7-1.7-4.3 0-1 0.1-2 0.5-2.9q0.9 0.6 1.6 1.4c0.6 0.8 1.1 1.7 1.9 2.5 1.4 1.5 3.8 2.1 5.8 2.1q1.8 0 3.6-0.2z"/>
	<path id="Layer" class="s3" d="m178.2 109.9q-0.7 9.8-1 19.6c0 2 0 4 0.8 5.8q0.9 1.8 2.4 3.2c2.4 2.5 5 4.6 7.9 6.4 3.8 2.4 8.7 5.1 8.7 9.7 0.1 3.2-2.3 5.8-4.3 8.3-1.9 2.5-3.6 5.9-2.1 8.7"/>
	<path id="Layer" class="s4" d="m170.9 109.6c0-1.2 0.4-2.4 1-3.4 0.6-1 1.5-1.8 2.5-2.4l1.6 3.1v-3.8q1.1-0.3 2.3-0.3c1.4 0.1 2.8 0.6 3.9 1.4 1.1 0.8 2 2 2.4 3.3 0.5 1.3 0.6 2.8 0.3 4.1-0.4 1.4-1.1 2.6-2.2 3.6-1 0.9-2.3 1.6-3.7 1.8-1.4 0.2-2.8 0-4.1-0.6-1.2-0.6-2.3-1.6-3-2.8-0.7-1.2-1.1-2.6-1-4z"/>
	<path id="Layer" class="s4" d="m182.7 154.6l4.9 1.2-4.4-3.7c0.6-1.5 1.6-2.8 3-3.6 1.4-0.9 3.1-1.2 4.7-0.9 1.6 0.2 3.1 1 4.2 2.2 1.1 1.2 1.7 2.8 1.8 4.4 0.1 1.6-0.3 3.2-1.3 4.6-0.9 1.3-2.3 2.3-3.9 2.7-1.6 0.4-3.2 0.3-4.7-0.4-1.5-0.6-2.7-1.8-3.5-3.2-0.5-1-0.8-2.2-0.8-3.3z"/>
	<path id="Layer" class="s4" d="m183 142.5c-1.1-0.9-2-2.1-2.4-3.5q-0.4-1.2-0.3-2.5c0.1-1.8 0.9-3.6 2.3-4.9 1.4-1.3 3.2-1.9 5.1-1.8l1.6 3.2v-3c1.7 0.5 3.1 1.6 4.1 3.1 0.9 1.4 1.3 3.2 1 4.9-0.3 1.8-1.2 3.3-2.6 4.4-1.3 1.1-3 1.7-4.8 1.6-1.4 0-2.8-0.6-4-1.5z"/>
	<path id="Layer" class="s4" d="m165.6 130.9c-1.2-1-2-2.4-2.4-3.9q-0.2-0.9-0.2-1.9 0.1-1.4 0.7-2.7 0.6-1.3 1.6-2.2l2.6 2.4-1.2-3.4c0.9-0.6 2-0.9 3.1-1 1.1 0 2.2 0.2 3.2 0.6 1 0.5 1.9 1.1 2.6 2 0.7 0.8 1.2 1.8 1.5 2.9 0.2 1.1 0.2 2.2 0 3.3-0.3 1.1-0.8 2.1-1.5 2.9-0.7 0.9-1.6 1.6-2.6 2-1 0.4-2.1 0.6-3.2 0.6-1.5-0.1-3-0.6-4.2-1.6z"/>
	<path id="Layer" class="s2" d="m171.8 111.5c1.7 0.2 3.3 0.7 4.9 0.8 1.6 0.1 3.5-0.3 4.5-1.6q0.7-1.1 1.3-2.3c0.5-0.7 1.1-1.3 1.8-1.7 0.5 0.9 0.7 1.9 0.8 2.9 0 1-0.2 2-0.5 3-0.4 0.9-1 1.8-1.7 2.5-0.7 0.7-1.6 1.2-2.5 1.6-1 0.3-2 0.4-3 0.4-1-0.1-2-0.4-2.9-0.9-0.9-0.5-1.6-1.2-2.2-2-0.6-0.8-1.1-1.8-1.3-2.8q0.4 0.1 0.8 0.1z"/>
	<path id="Layer" class="s2" d="m165.6 130.9c-1.2-1-2-2.4-2.4-3.9q0.4 0 0.7 0c1.8 0.2 3.4 0.7 5.1 0.8 1.7 0.1 3.6-0.4 4.7-1.7q0.8-1.1 1.4-2.3 0.6-0.9 1.5-1.5c0.5 1.1 0.7 2.4 0.6 3.6-0.1 1.2-0.5 2.4-1.2 3.4-0.6 1-1.6 1.9-2.7 2.4-1.1 0.6-2.3 0.8-3.5 0.8-1.5-0.1-3-0.7-4.2-1.6z"/>
	<path id="Layer" class="s2" d="m183 142.5c-1.1-0.9-2-2.1-2.4-3.5 1.7 0.1 3.4 0.5 5.2 0.6 1.8 0.1 3.8-0.4 5-1.8q0.9-1.1 1.5-2.4 0.7-0.8 1.5-1.4c0.5 1.1 0.8 2.3 0.6 3.5-0.1 1.2-0.5 2.4-1.2 3.4-0.6 1-1.6 1.8-2.7 2.4-1 0.5-2.3 0.8-3.5 0.7-1.4 0-2.8-0.6-4-1.5z"/>
	<path id="Layer" class="s2" d="m187.1 158.1c2.1-0.1 4.5-0.7 5.9-2.1 0.8-0.8 1.2-1.7 1.9-2.5q0.7-0.8 1.6-1.4c0.6 1.7 0.6 3.6-0.1 5.2-0.7 1.7-2 3.1-3.7 3.8-1.6 0.7-3.5 0.8-5.2 0.2-1.7-0.6-3.1-1.8-4-3.4q1.8 0.2 3.6 0.2z"/>
	<ellipse id="Layer" class="s5" cx="374.6" cy="115" rx="57.6" ry="57.9"/>
	<path id="Layer" class="s4" d="m400.6 133.5q-0.8 1.7-1.8 3.3c-1.3 2-2.4 3.2-4.1 3.9-1.7 0.8-4.8 1.8-13-2.9-6.3-3.4-12-7.7-17.1-12.8-5-5-9.3-10.8-12.7-17.1-4.6-8.2-3.7-11.3-2.9-13 0.8-1.7 1.9-2.9 3.9-4.2q1.6-1 3.3-1.7c1.1-0.5 1.5-0.9 3.6 1.1 2 2 5 6.9 6.1 9.3 1.4 2.8 1.3 3.8-0.1 5.8-1.2 1.6-2.2 2.6-1.8 4.5 0.3 1.9 3.1 5.6 6.7 9.2 3.6 3.6 7.3 6.4 9.2 6.8 1.8 0.4 2.9-0.7 4.5-1.8 2-1.5 3-1.5 5.7-0.2 2.4 1.2 7.3 4.2 9.3 6.2 2 2.1 1.5 2.5 1.2 3.6z"/>
	<path id="Layer" fill-rule="evenodd" class="s2" d="m415.4 74.1c10.8 10.8 16.9 25.5 16.9 40.9 0 11.5-3.4 22.7-9.7 32.2-6.4 9.5-15.4 17-25.9 21.4-10.6 4.3-22.2 5.5-33.3 3.3-11.2-2.3-21.5-7.8-29.6-15.9-8-8.1-13.5-18.4-15.8-29.7-2.2-11.2-1-22.9 3.3-33.5 4.4-10.5 11.8-19.6 21.3-26 9.5-6.3 20.6-9.7 32-9.7 15.3 0 30 6.1 40.8 17zm-21.6 87.3c6-2.5 11.5-6.2 16.2-10.9 4.6-4.7 8.3-10.2 10.8-16.3 2.5-6.1 3.8-12.6 3.8-19.2 0-9.9-2.9-19.6-8.4-27.9-5.5-8.3-13.3-14.7-22.4-18.5-9.2-3.8-19.2-4.8-28.9-2.9-9.7 2-18.6 6.8-25.6 13.8-7 7-11.8 16-13.7 25.7-1.9 9.7-0.9 19.8 2.9 29 3.7 9.2 10.1 17 18.4 22.6 8.2 5.5 17.8 8.4 27.7 8.4 6.6 0 13.1-1.3 19.2-3.8z"/>
	<ellipse id="Layer" class="s5" cx="242.2" cy="203" rx="57.6" ry="57.9"/>
	<path id="Layer" class="s4" d="m275.1 185.4q0.1 0 0.2 0 0.1 0 0.2 0.1 0 0.1 0 0.2v35.3c0 1.3-0.5 2.6-1.5 3.6-0.9 1-2.2 1.5-3.6 1.5h-56.4c-1.4 0-2.7-0.5-3.6-1.5-1-1-1.5-2.3-1.6-3.6v-35.3q0-0.1 0.1-0.2 0.1-0.1 0.1-0.1 0.1-0.1 0.2 0 0.1 0 0.2 0l17.2 17.7q0.1 0.1 0.1 0.2 0 0.1-0.1 0.2l-12 12.9q-0.3 0.3-0.5 0.7-0.1 0.4-0.1 0.8 0 0.4 0.1 0.8 0.2 0.4 0.5 0.7 0.3 0.3 0.7 0.5 0.3 0.1 0.8 0.1 0.4 0 0.8-0.1 0.3-0.2 0.6-0.5l12-12.9q0.1 0 0.3-0.1 0.1 0.1 0.2 0.1l2.8 2.9c1.2 1.3 2.7 2.3 4.3 3 1.6 0.7 3.4 1 5.1 1 1.7 0 3.4-0.3 5-1 1.6-0.6 3-1.6 4.2-2.8l3-3q0.1-0.1 0.2-0.1 0.1 0 0.2 0.1l12.1 12.9c0.4 0.4 0.9 0.6 1.5 0.6q0.6 0 1.1-0.4 0.5-0.3 0.8-0.9 0.2-0.6 0.1-1.2-0.1-0.6-0.6-1.1l-12.1-12.9q0-0.1 0-0.1-0.1-0.1-0.1-0.2 0 0 0.1-0.1 0 0 0-0.1l17.3-17.6q0-0.1 0.1-0.1z"/>
	<path id="Layer" class="s4" d="m238.8 208.6c-1.1-0.5-2-1.1-2.8-1.9l-25.2-25.8c0.9-0.7 2-1.1 3.2-1.1h56.5c1.1 0 2.2 0.4 3.1 1.1l-25.1 25.8c-0.8 0.8-1.8 1.5-2.9 1.9-1.1 0.4-2.2 0.7-3.4 0.7-1.2 0-2.3-0.3-3.4-0.7z"/>
	<path id="Layer" fill-rule="evenodd" class="s2" d="m282.2 162c10.8 10.9 16.9 25.6 16.9 41 0 11.4-3.4 22.6-9.7 32.2-6.3 9.5-15.3 16.9-25.9 21.3-10.5 4.4-22.1 5.6-33.3 3.3-11.2-2.2-21.5-7.7-29.5-15.8-8.1-8.1-13.6-18.5-15.8-29.7-2.2-11.2-1.1-22.9 3.3-33.5 4.3-10.6 11.7-19.6 21.2-26 9.5-6.4 20.7-9.7 32.1-9.7 15.3 0 29.9 6.1 40.7 16.9zm-5.4 76.5c9.4-9.4 14.6-22.2 14.6-35.5 0-10-2.9-19.7-8.4-27.9-5.5-8.3-13.3-14.7-22.4-18.5-9.1-3.8-19.2-4.8-28.9-2.9-9.7 2-18.6 6.7-25.6 13.8-7 7-11.7 15.9-13.6 25.7-2 9.7-1 19.8 2.8 29 3.8 9.2 10.2 17 18.4 22.5 8.2 5.5 17.9 8.5 27.8 8.5 13.2 0 25.9-5.3 35.3-14.7z"/>
	<ellipse id="Layer" class="s5" cx="105.4" cy="159.7" rx="57.6" ry="57.9"/>
	<path id="Layer" class="s4" d="m128.4 185.3l-2.2 2.1-20.8-9.2-20.8 9.2-2.2-2.1 23-53.3z"/>
	<path id="Layer" fill-rule="evenodd" class="s2" d="m146.2 118.8c10.8 10.8 16.8 25.6 16.8 40.9 0 11.5-3.3 22.7-9.7 32.2-6.3 9.5-15.3 17-25.9 21.4-10.5 4.3-22.1 5.5-33.3 3.2-11.2-2.2-21.4-7.7-29.5-15.8-8.1-8.1-13.6-18.4-15.8-29.7-2.2-11.2-1.1-22.9 3.3-33.5 4.4-10.6 11.8-19.6 21.3-26 9.4-6.3 20.6-9.7 32-9.7 15.3 0 30 6.1 40.8 17zm-40.8 91.1c13.3 0 26-5.3 35.3-14.7 9.4-9.4 14.7-22.2 14.7-35.5 0-9.9-2.9-19.6-8.4-27.9-5.5-8.2-13.3-14.7-22.5-18.5-9.1-3.8-19.1-4.8-28.8-2.9-9.7 2-18.6 6.8-25.6 13.8-7 7-11.8 15.9-13.7 25.7-1.9 9.7-1 19.8 2.8 29 3.8 9.2 10.2 17 18.4 22.5 8.3 5.6 17.9 8.5 27.8 8.5z"/>
	<path id="Layer" fill-rule="evenodd" class="s6" d="m382.2 242.7q0 0.3-0.1 0.5-0.2 0.2-0.6 0.2-3.3 0.5-6.7 0.6c-0.2 1.7-0.3 3.1-0.4 3.6q0 1 0.3 1.9c0.3 0.3 1.2 6 0.9 8.8q-0.1 1.3 0 2.6v0.1c0 0 0.7 12.3 0.5 13.4-0.3 1.2 0.9 5.3 0.9 5.3 1.5 4.1 2 8.5 1.6 12.9l0.2 6.5c0 0 0.8 2 0.6 2.8 0 0 0.3 1.7 0.5 2.8q0.1 0.4 0.1 0.8c0 0.5-0.9 1.6-0.9 1.6-1.9 0.2-3.7 0-5.5-0.7-0.4-0.2 0.2-1.6 0.2-1.6l0.1-0.1q0.3-0.8 0.9-1.5c0.4-0.5 0.7-2.4 0.7-2.4 0-1.4 0-4.8-1.2-7-1.6-3-2.5-10.6-2.5-10.6 0 0-2.3-4.6-2.3-6.5 0-1.5-2.4-11.8-3.3-15.5q-0.1 0-0.1-0.1v-0.2-0.2q-0.1-0.4-0.4-0.7l1.3 6.6c0 0 2.3 9 1.8 10.8-0.2 1.5-0.2 2.9 0 4.4 1.1 2.7 0.9 6.7 0.9 6.7-0.2 3.7 0 7.4 0.6 11.1 0.1-0.2 0.2-0.4 0.3-0.3q0.7 1.2 1.1 2.5c0.2 0.5 0.3 0.9 0.3 0.9 0 0-1.4 2.6-9.3 3.5-4.2 0.5-4.2-0.3-3.3-1.1q1.2-1 2.6-1.6c0 0 2.9-2.1 3.4-3.5q0.1-0.3 0.2-0.4 0.2-0.2 0.4-0.3c-0.1-1.5-0.7-6.8-1.5-9-0.9-2.5-1.6-11.1-1.6-11.1q-0.3-1.9-0.9-3.9c-2.4-3.9-3.8-12.9-4.2-16.1-0.4-0.1-0.6-0.1-0.6-0.2 0 0 0.2-6.7 0.9-9.9-0.7 0-1.8-1.8-2-2.5q-0.5-1.8-0.5-3.6l-0.1-1.6q-0.1-1 0.2-1.9 0.2-0.6 0.7-1 0-0.2 0-0.4 0-0.2 0-0.3l-1.9-1.3q-0.1-0.1-0.1-0.2 0-0.1 0-0.2 0-0.1 0-0.2 0.1 0 0.2-0.1l1.9-0.7 0.1-1.1c0.1-1.6 0.3-3.3 1.4-4.4q0.5-0.4 1.1-0.7c-3.6-0.4-6.5-4-6.7-8.5q0-0.2 0-0.4c0-1.3 0.2-2.6 0.7-3.8 0.5-1.3 1.3-2.4 2.2-3.3 0.8-1.6 2.1-2.8 3.6-3.6 1.6-0.8 3.4-1 5.1-0.6 1.3-0.8 2.8-1.2 4.3-1.2 1.1 0 2.1 0.2 3.1 0.6q1.5 0.7 2.7 1.8 1.1 1.2 1.8 2.7 0.6 1.5 0.6 3.2 0 0.2 0 0.3c-0.1 1.8-0.7 3.5-1.8 4.9-1.1 1.4-2.7 2.4-4.4 2.8q0.6 0.2 1 0.4 1.2-0.1 2.4 0 0.8 0.1 1.5 0.3 0.7 0.4 1.2 0.9 1.2 1.5 1.9 3.4 0.8 1.9 1.6 3.9c1.3 3.2 2.6 6.5 2.3 10zm-5-3.4q-0.4-1.9-1.1-3.7v-0.1c-0.3 1.2-0.5 2.8-0.7 4.5q0.9-0.3 1.8-0.7z"/>
	<path id="Layer" class="s7" d="m365.2 258.2l1.8 8.8c0 0 2.3 8.9 1.8 10.7-0.3 1.5-0.3 2.9 0 4.4 1.1 2.7 0.9 6.6 0.9 6.6-0.3 3.9 0 7.9 0.7 11.8-1.1 3-4.3-0.7-4.3-0.7 0 0-0.7-6.8-1.6-9.3-0.9-2.5-1.6-10.9-1.6-10.9q-0.3-2-0.9-3.9c-2.9-4.8-4.3-17.1-4.3-17.1z"/>
	<path id="Layer" class="s8" d="m372 302.8c0 0-1.4 2.5-9.3 3.4-4.1 0.5-4.2-0.3-3.2-1.1q1.1-1 2.5-1.6c0 0 2.9-2.1 3.4-3.4 0.4-1.4 2-0.3 2-0.3 2.3 3.4 2.8-0.9 3.2-0.4q0.7 1.1 1.1 2.4c0.1 0.6 0.3 1 0.3 1z"/>
	<path id="Layer" class="s2" d="m372 302.8c0 0-1.4 2.5-9.3 3.4-4.1 0.5-4.2-0.3-3.2-1.1 0.6 0.4 1.9 0.6 4.5-0.5 3.8-1.5 6.6-2.4 7.7-2.8 0.1 0.6 0.3 1 0.3 1z"/>
	<path id="Layer" class="s2" d="m370.4 300.5c-0.5 1.3-1.4 1.3-2.3 1q0.5-0.4 0.7-1c-0.7-3.9-0.9-7.9-0.7-11.8 0 0 0.3-3.9-0.9-6.6-0.2-1.5-0.2-2.9 0-4.4 0.5-1.8-1.8-10.7-1.8-10.7l-1.8-8.7 1.6-0.1 1.8 8.8c0 0 2.3 8.9 1.8 10.7-0.3 1.5-0.3 2.9 0 4.4 1.1 2.7 0.9 6.6 0.9 6.6-0.3 3.9 0 7.9 0.7 11.8z"/>
	<path id="Layer" class="s5" d="m368.2 208.6c2.2 0 4.3 0.9 5.8 2.4 1.5 1.6 2.4 3.7 2.4 5.8 0 2.2-0.9 4.3-2.4 5.8-1.5 1.6-3.6 2.4-5.8 2.4q-1 0-2-0.2c-1.2 2.9-3.7 5-6.6 5-4 0-7.2-3.9-7.2-8.8-0.1-1.3 0.2-2.6 0.7-3.8 0.5-1.2 1.3-2.3 2.2-3.2 0.8-1.6 2-2.8 3.6-3.6 1.6-0.7 3.4-0.9 5.1-0.5 1.2-0.8 2.7-1.3 4.2-1.3z"/>
	<path id="Layer" class="s7" d="m374.9 259.8l0.7 1.8c0 0 0.7 12 0.5 13.2-0.3 1.1 0.9 5.2 0.9 5.2 1.4 4.1 2 8.4 1.5 12.7l0.3 6.4c0 0 0.9 2.5 0.4 3-0.4 0.4-3.8-0.4-3.8-0.4 0 0 0.4-4.8-1.2-7.8-1.6-2.9-2.5-10.4-2.5-10.4 0 0-2.3-4.6-2.3-6.4 0-1.8-3.6-16.6-3.6-16.6z"/>
	<path id="Layer" class="s5" d="m357.2 259.5c0 0 0.3-8.2 1.2-10.7q0.7-1.7 1-3.6c0 0 13.7 2.5 14.9 1.6 0 0 0.2 3.2 0.4 3.4 0.2 0.2 1.2 5.9 0.9 8.6-0.2 2.8 0 2.8 0 2.8 0 0-9.3 1.3-9.5 0-0.2-1.4-0.9-1.4-0.9-1.4 0 0-8.4-0.2-8-0.7z"/>
	<g id="Layer" style="opacity: .1">
		<path id="Layer" class="s2" d="m365.5 260.3q-0.1-0.1-0.3-0.1c0 0-8.4-0.2-7.9-0.7q0 0 0-0.4c1.7 0.3 7.4 0.4 7.4 0.4 0 0 0.5 0 0.8 0.8z"/>
		<path id="Layer" class="s2" d="m375.6 258.8c-0.2 2.8 0 2.8 0 2.8 0 0-9.3 1.3-9.5 0 0-0.1-0.1-0.3-0.1-0.4 1.8 0.8 9.1-0.3 9.1-0.3 0 0-0.2 0 0-2.7 0.3-2.8-0.7-8.5-0.9-8.7-0.1-0.1-0.3-1.6-0.3-2.6q0.2 0 0.3-0.1c0 0 0.3 3.2 0.5 3.4 0.2 0.2 1.1 5.9 0.9 8.6z"/>
	</g>
	<path id="Layer" class="s7" d="m367.2 223q0.3 0.6 0.9 1.1 0.4 0.3 0.8 0.4c-0.5 0.3-1.1 0.5-1.6 0.8q-1.2 0.8-2.3 1.7c-0.7 0.6-1.6 1-2.6 1q0.5-0.7 0.6-1.5 0.1-0.9-0.2-1.7-0.4-0.5-0.5-1.1c0-0.7 0.6-1.2 1.2-1.5q0.6-0.5 1.3-0.9c0.3-0.2 0.9-0.7 1.3-0.7 0.5 0.1 0.5 0.5 0.6 0.9q0.2 0.8 0.5 1.5z"/>
	<path id="Layer" class="s2" d="m367.2 223q0.3 0.6 0.9 1.1 0.4 0.3 0.8 0.4c-0.5 0.3-1.1 0.5-1.6 0.8q-1.2 0.8-2.3 1.7c-0.7 0.6-1.6 1-2.6 1q0.5-0.7 0.6-1.5 0.1-0.9-0.2-1.7-0.4-0.5-0.5-1.1c0-0.7 0.6-1.2 1.2-1.5q0.6-0.5 1.3-0.9c0.3-0.2 0.9-0.7 1.3-0.7 0.5 0.1 0.5 0.5 0.6 0.9q0.2 0.8 0.5 1.5z"/>
	<ellipse id="Layer" class="s7" cx="372.5" cy="231.2" rx="5.2" ry="5.2"/>
	<path id="Layer" class="s8" d="m379.9 305.5c0 0.5-0.9 1.6-0.9 1.6-1.8 0.2-3.7 0-5.4-0.7-0.5-0.2 0.2-1.6 0.2-1.6v-0.1q0.3-0.8 0.9-1.5c0.4-0.4 0.7-2.3 0.7-2.3 1.4-2.3 3.9 1 3.9 1 0 0 0.3 1.8 0.5 2.8 0.1 0.4 0.1 0.7 0.1 0.8z"/>
	<path id="Layer" class="s2" d="m379.9 305.5c0 0.5-0.9 1.6-0.9 1.6-1.8 0.2-3.7 0-5.4-0.7-0.5-0.2 0.2-1.6 0.2-1.6v-0.1c1.6 0.7 3.3 1.1 5 1l1-1c0.1 0.4 0.1 0.7 0.1 0.8z"/>
	<ellipse id="Layer" class="s7" cx="362.1" cy="220.2" rx="5.1" ry="5.1"/>
	<path id="Layer" class="s7" d="m359.6 229.6c0.4-0.2 1.2-0.6 1.6-0.5 0.8 0.3 0.3 2.8 0.2 3.5-0.1 2.1-0.3 4.3-0.6 6.4-0.1 0.5-0.1 1-0.2 1.5 0 0.6 0 1.1-0.1 1.6q-0.3 2.2-1.1 4.2c-0.1 0.4-0.4 0.8-0.8 1.1-0.3 0.1-0.6 0.2-0.9 0-0.4-0.1-0.6-0.3-0.8-0.6-0.3-0.6-0.4-1.3-0.4-2v-3.4c0-0.4 0-0.9 0-1.3 0-0.4-0.1-0.8-0.1-1.2q-0.1-0.9 0-1.8l0.2-2.3c0.1-1.5 0.3-3.2 1.4-4.3q0.7-0.6 1.6-0.9z"/>
	<path id="Layer" class="s2" d="m359.6 229.6c0.4-0.2 1.2-0.6 1.6-0.5 0.8 0.3 0.3 2.8 0.2 3.5-0.1 2.1-0.3 4.3-0.6 6.4-0.1 0.5-0.1 1-0.2 1.5 0 0.6 0 1.1-0.1 1.6q-0.3 2.2-1.1 4.2c-0.1 0.4-0.4 0.8-0.8 1.1-0.3 0.1-0.6 0.2-0.9 0-0.4-0.1-0.6-0.3-0.8-0.6-0.3-0.6-0.4-1.3-0.4-2v-3.4c0-0.4 0-0.9 0-1.3 0-0.4-0.1-0.8-0.1-1.2q-0.1-0.9 0-1.8l0.2-2.3c0.1-1.5 0.3-3.2 1.4-4.3q0.7-0.6 1.6-0.9z"/>
	<path id="Layer" class="s8" d="m372.2 225.4c-3.4 5.2 2.3 8.6 2.3 8.6l2 0.7c-0.9 2.1-2.2 13.8-2.2 13.8 0 0-7.6-2.2-9.6-1.7-2 0.4-4.3-1.2-5.1-1.3-0.7-0.1 0.1-2.6 0.3-3.3 0.3-0.7-0.2-2.7-0.2-2.7-1.6-2.1-0.4-4.1 0-5 0.5-0.9 0.9-5 1.2-5.4 0.2-0.4 1.6-1.9 1.6-1.9 2.2-0.7 6.1-3.7 6.1-3.7 0.4 1.2 3.6 1.9 3.6 1.9z"/>
	<path id="Layer" class="s5" d="m354.4 237.1q0-0.1 0-0.2 0-0.1 0-0.1 0.1-0.1 0.2-0.2l2.3-0.8q0.1 0 0.2 0 0.1 0 0.2 0.1l3.6 3.2q0 0 0.1 0.1 0 0.1 0 0.2 0 0 0 0.1-0.1 0.1-0.1 0.1l-1.3 1q-0.1 0.1-0.2 0.1-0.1 0-0.2-0.1l-4.7-3.3q-0.1-0.1-0.1-0.2z"/>
	<path id="Layer" class="s7" d="m356.1 247.3q-0.5-1.7-0.5-3.6l-0.1-1.6q-0.1-0.9 0.2-1.8 0.3-0.6 0.8-1.1 0.5-0.4 1.1-0.6 1.3-0.4 2.7-0.2 0.2 0 0.3 0.1 0.2 0.1 0.2 0.3 0.2 0.4 0.2 0.8 0.1 0.5-0.1 0.9-0.2 0.3-0.5 0.5c-0.7 0.5-1.4 0.8-2 1.3q-0.2 0.1-0.2 0.3-0.1 0.2 0 0.4 0.1 0.4 0.3 0.9 0 0.2 0.2 0.4c0.1 0.1 0.3 0.1 0.4 0.2 0.2 0.2 0.8 0.5 0.7 0.8-0.1 1.2-0.8 2.4-1 3.6-0.5 2.2-2.4-0.6-2.7-1.6z"/>
	<g id="Layer" style="opacity: .1">
		<path id="Layer" class="s2" d="m364.9 246.8h-0.2q-0.7 0.1-1.5 0h0.2q0.7-0.1 1.5 0z"/>
		<path id="Layer" class="s2" d="m376.5 234.7c-0.9 2.1-2.1 13.8-2.1 13.8 0 0-0.6-0.2-1.4-0.4 0.2-1.9 1.4-11.9 2.3-13.7z"/>
	</g>
	<path id="Layer" class="s7" d="m372.3 230.9c-0.7-1.4-1.4-2.9-1.4-4.4q0-0.7 0.2-1.4 1.3-0.1 2.5 0.1 0.8 0 1.6 0.3 0.6 0.3 1.1 0.8 1.3 1.6 2 3.4 0.8 1.9 1.6 3.8c1.3 3.2 2.5 6.5 2.3 9.9q0 0.2 0 0.3-0.1 0.1-0.2 0.2-0.1 0.2-0.2 0.2-0.2 0-0.3 0-3.8 0.6-7.7 0.6c-1.8 0.1-3.6 0-5.2 0.6q-0.7 0.2-1.2 0.8-0.7 0.9-1.6 1.6c-0.6 0.5-1.3 0.7-2.1 0.7q-0.1 0-0.2 0-0.1 0-0.2-0.1-0.1-0.1-0.1-0.2-0.1-1.1 0.2-2.1 0.4-1 1.1-1.7c0.9-1 2.1-1.7 3.5-2.1 3-0.9 6.3-0.8 9.2-2.1q-0.5-1.9-1.1-3.6-0.5-1.5-1.3-2.7-0.6-0.7-1.3-1.3-0.3-0.2-0.5-0.5-0.2-0.3-0.3-0.7c-0.1-0.2-0.4-0.2-0.5-0.4z"/>
	<path id="Layer" class="s9" d="m364.9 239.1q-0.6-0.2-1.1-0.6-0.5-0.5-0.7-1.1-0.2-0.4-0.2-0.9c0-0.8 0.2-1.6 0.6-2.2"/>
	<path id="Layer" class="s5" d="m366.4 215.2q0.7 0 1.4 0.4 0.6 0.4 1 1 0.3 0.7 0.3 1.4 0 0.8-0.4 1.4-0.4 0.6-1 1-0.7 0.3-1.4 0.3-0.8-0.1-1.4-0.5-0.6-0.4-0.9-1c-1 0.4-2 0.6-3 0.6-2.8 0-5-1.4-5-3.2 0-1.8 2.2-3.2 5-3.2 2.1 0 3.8 0.8 4.6 2q0.4-0.2 0.8-0.2z"/>
	<path id="Layer" class="s2" d="m368.1 219.6q0.6-0.4 1-1.1c-0.1 0.5-0.4 1.1-0.8 1.5-0.5 0.3-1 0.6-1.5 0.7-0.6 0.1-1.2-0.1-1.7-0.3-0.5-0.3-0.9-0.7-1.1-1.2-1 0.4-2 0.6-3 0.6-2.8 0-5-1.5-5-3.2q0-0.5 0.2-1 0 0.2 0 0.3c0 1.8 2.3 3.2 5 3.2 1 0 2.1-0.2 3-0.6q0.3 0.7 1 1.1 0.7 0.4 1.4 0.4 0.8 0 1.5-0.4z"/>
	<path id="Layer" class="s2" d="m352.3 221.7q0-0.3 0-0.7c0-1.3 0.3-2.6 0.8-3.8 0.5-1.2 1.2-2.3 2.2-3.2 0.7-1.6 2-2.8 3.6-3.6 1.6-0.7 3.3-0.9 5-0.5 1.3-0.8 2.7-1.2 4.1-1.3 1.5 0 2.9 0.4 4.2 1.1 1.2 0.7 2.3 1.7 3 3 0.8 1.2 1.2 2.7 1.2 4.1q0 0.4 0 0.7c-0.1-1.4-0.6-2.7-1.4-3.9-0.8-1.2-1.8-2.1-3.1-2.7-1.2-0.7-2.6-1-4-0.9-1.4 0-2.8 0.5-3.9 1.2-1.7-0.4-3.5-0.2-5.1 0.6-1.6 0.7-2.8 2-3.6 3.5-1.8 1.7-2.8 4-3 6.4z"/>
	<path id="Layer" class="s3" d="m407.3 217.1c1.5-2.8-0.2-6.3-2.2-8.7-1.9-2.5-4.3-5.1-4.3-8.3 0.1-4.6 4.9-7.3 8.8-9.7 2.9-1.8 5.5-4 7.9-6.4q1.5-1.4 2.4-3.3c0.8-1.7 0.8-3.8 0.7-5.7q-0.2-9.8-1-19.6"/>
	<path id="Layer" class="s4" d="m426 159.1c-0.8 1.2-1.8 2.1-3.1 2.7-1.3 0.6-2.7 0.8-4.1 0.6-1.4-0.2-2.7-0.8-3.7-1.7-1-1-1.8-2.2-2.1-3.6-0.3-1.4-0.3-2.8 0.2-4.1 0.5-1.4 1.3-2.5 2.5-3.4 1.1-0.8 2.5-1.3 3.9-1.3q1.1-0.1 2.3 0.2l-0.1 3.9 1.6-3.2c1.1 0.6 1.9 1.5 2.6 2.5 0.6 1 0.9 2.2 1 3.3 0 1.5-0.3 2.9-1 4.1z"/>
	<path id="Layer" class="s4" d="m414.3 203.3c-0.7 1.5-1.9 2.6-3.4 3.3-1.5 0.7-3.2 0.8-4.8 0.3-1.5-0.4-2.9-1.3-3.9-2.7-0.9-1.3-1.4-2.9-1.3-4.6 0.1-1.6 0.8-3.1 1.9-4.3 1.1-1.3 2.5-2 4.2-2.3 1.6-0.2 3.2 0.1 4.6 0.9 1.4 0.9 2.5 2.1 3.1 3.7l-4.5 3.6 4.9-1.2c0 1.2-0.3 2.3-0.8 3.3z"/>
	<path id="Layer" class="s4" d="m410.8 189.5c-1.7 0.1-3.4-0.5-4.8-1.6-1.4-1.1-2.3-2.7-2.5-4.4-0.3-1.7 0.1-3.5 1-5 0.9-1.5 2.4-2.5 4.1-3l-0.1 2.9 1.6-3.2c1.9-0.1 3.8 0.6 5.1 1.9 1.4 1.3 2.3 3 2.4 4.9q0 1.4-0.5 2.8-0.4 1.3-1.4 2.4-0.9 1-2.2 1.6-1.3 0.6-2.7 0.7z"/>
	<path id="Layer" class="s4" d="m428 178c-1.1 0-2.2-0.2-3.2-0.6-1-0.5-1.9-1.2-2.6-2-0.7-0.9-1.2-1.9-1.4-2.9-0.3-1.1-0.3-2.2 0-3.3 0.2-1.1 0.7-2.1 1.4-2.9 0.7-0.9 1.6-1.6 2.6-2 1.1-0.4 2.2-0.6 3.3-0.6 1.1 0.1 2.1 0.4 3.1 0.9l-1.3 3.5 2.6-2.5q1.1 1 1.7 2.2 0.6 1.3 0.6 2.7 0.1 1-0.2 2c-0.3 1.5-1.2 2.9-2.3 3.8-1.2 1-2.7 1.6-4.3 1.7z"/>
	<path id="Layer" class="s2" d="m426.8 156.9c-0.2 1-0.6 1.9-1.2 2.7-0.6 0.9-1.4 1.5-2.3 2-0.8 0.5-1.8 0.8-2.8 0.9-1 0.1-2 0-3-0.4-0.9-0.3-1.8-0.9-2.5-1.6-0.8-0.7-1.3-1.5-1.7-2.5-0.4-0.9-0.6-1.9-0.5-2.9 0-1 0.3-2 0.8-2.9 0.7 0.4 1.3 0.9 1.7 1.6q0.6 1.2 1.4 2.4c1 1.3 2.8 1.7 4.4 1.5 1.7-0.1 3.3-0.6 4.9-0.8q0.4 0 0.8 0z"/>
	<path id="Layer" class="s2" d="m428 178c-1.2 0-2.4-0.2-3.5-0.8-1.1-0.6-2-1.4-2.7-2.4-0.7-1-1.1-2.2-1.2-3.4-0.1-1.3 0.2-2.5 0.7-3.6q0.8 0.6 1.4 1.4 0.7 1.2 1.4 2.4c1.1 1.3 3 1.7 4.7 1.6 1.7-0.1 3.4-0.6 5.1-0.7 0.2 0 0.5 0 0.7 0-0.3 1.5-1.2 2.8-2.3 3.8-1.2 1-2.7 1.6-4.3 1.7z"/>
	<path id="Layer" class="s2" d="m410.8 189.5c-1.2 0-2.4-0.2-3.5-0.8-1.1-0.5-2-1.3-2.7-2.3-0.7-1-1.1-2.2-1.2-3.4-0.1-1.2 0.1-2.5 0.6-3.6q0.9 0.6 1.5 1.5c0.6 0.8 0.9 1.7 1.5 2.4 1.2 1.3 3.3 1.8 5.1 1.7 1.8 0 3.4-0.4 5.2-0.6-0.5 1.4-1.3 2.7-2.5 3.6-1.1 0.9-2.5 1.4-4 1.5z"/>
	<path id="Layer" class="s2" d="m414.3 203.3c-0.8 1.6-2.2 2.8-3.9 3.4-1.7 0.6-3.6 0.5-5.2-0.2-1.7-0.8-3-2.1-3.7-3.7-0.7-1.7-0.7-3.6-0.1-5.3q0.9 0.6 1.5 1.4c0.7 0.9 1.2 1.8 1.9 2.6 1.5 1.4 3.8 2 5.9 2q1.8 0 3.6-0.2z"/>
	<path id="Layer" class="s3" d="m429.9 305.1c1.5-2.7-0.2-6.2-2.2-8.7-1.9-2.5-4.3-5.1-4.3-8.3 0.1-4.5 4.9-7.2 8.8-9.7 2.9-1.8 5.5-3.9 7.9-6.3 1-1 1.8-2.1 2.4-3.3 0.8-1.8 0.8-3.8 0.7-5.8q-0.2-9.8-0.9-19.5"/>
	<path id="Layer" class="s4" d="m449.6 243.1c0.1 1.4-0.3 2.8-1 4-0.7 1.2-1.8 2.2-3 2.8-1.3 0.6-2.7 0.8-4.1 0.6-1.4-0.2-2.7-0.8-3.7-1.8-1.1-0.9-1.8-2.2-2.2-3.5-0.3-1.4-0.2-2.8 0.3-4.2 0.4-1.3 1.3-2.5 2.4-3.3 1.2-0.8 2.5-1.3 3.9-1.4q1.2 0 2.3 0.3v3.8l1.6-3.1c1 0.6 1.9 1.4 2.5 2.4 0.6 1.1 0.9 2.2 1 3.4z"/>
	<path id="Layer" class="s4" d="m436.9 291.4c-0.7 1.5-1.9 2.6-3.4 3.3-1.5 0.6-3.2 0.7-4.7 0.3-1.6-0.4-3-1.4-3.9-2.7-1-1.3-1.5-3-1.4-4.6 0.1-1.6 0.8-3.2 1.9-4.4 1.1-1.2 2.6-2 4.2-2.2 1.6-0.3 3.2 0.1 4.6 0.9 1.4 0.8 2.5 2.1 3.1 3.6l-4.5 3.7 4.9-1.2c0 1.2-0.2 2.3-0.8 3.3z"/>
	<path id="Layer" class="s4" d="m433.4 277.5c-1.7 0.1-3.4-0.4-4.8-1.5-1.3-1.1-2.2-2.7-2.5-4.4-0.3-1.8 0.1-3.5 1-5 1-1.5 2.4-2.6 4.1-3l-0.1 2.9 1.7-3.2c1.8-0.1 3.7 0.6 5.1 1.9 1.4 1.2 2.2 3 2.3 4.9q0 1.4-0.4 2.7-0.5 1.4-1.5 2.4-0.9 1.1-2.2 1.7-1.3 0.6-2.7 0.6z"/>
	<path id="Layer" class="s4" d="m450.7 266c-1.1 0.1-2.2-0.1-3.2-0.6-1.1-0.4-1.9-1.1-2.7-1.9-0.7-0.9-1.2-1.9-1.4-3-0.3-1-0.3-2.2 0-3.2 0.2-1.1 0.7-2.1 1.5-3 0.7-0.8 1.6-1.5 2.6-1.9 1-0.5 2.1-0.7 3.2-0.6 1.1 0 2.1 0.4 3.1 0.9l-1.3 3.5 2.6-2.5q1.1 0.9 1.7 2.2 0.6 1.3 0.6 2.7 0.1 1-0.1 2c-0.4 1.5-1.2 2.8-2.4 3.8-1.2 1-2.7 1.6-4.2 1.6z"/>
	<path id="Layer" class="s2" d="m449.4 245c-0.2 1-0.6 1.9-1.2 2.7-0.6 0.8-1.4 1.5-2.2 2-0.9 0.5-1.9 0.8-2.9 0.9-1 0.1-2-0.1-3-0.4-0.9-0.3-1.8-0.9-2.5-1.6-0.8-0.7-1.3-1.5-1.7-2.5-0.4-0.9-0.5-2-0.5-3 0.1-1 0.3-2 0.8-2.9 0.7 0.4 1.3 1 1.8 1.7q0.6 1.2 1.3 2.3c1 1.3 2.8 1.7 4.5 1.6 1.6-0.1 3.2-0.6 4.8-0.8q0.4 0 0.8 0z"/>
	<path id="Layer" class="s2" d="m450.7 266c-1.3 0.1-2.5-0.2-3.6-0.7-1.1-0.6-2-1.4-2.7-2.4-0.7-1.1-1.1-2.3-1.1-3.5-0.1-1.2 0.1-2.4 0.6-3.5q0.9 0.5 1.4 1.4 0.7 1.2 1.4 2.3c1.2 1.3 3 1.8 4.8 1.7 1.7-0.1 3.3-0.6 5-0.7 0.3 0 0.5-0.1 0.7-0.1-0.3 1.5-1.1 2.9-2.3 3.9-1.2 1-2.7 1.6-4.2 1.6z"/>
	<path id="Layer" class="s2" d="m433.4 277.5c-1.2 0.1-2.4-0.2-3.5-0.7-1.1-0.5-2-1.4-2.7-2.4-0.7-1-1.1-2.1-1.2-3.4-0.1-1.2 0.1-2.4 0.6-3.5q0.9 0.6 1.5 1.4c0.6 0.8 0.9 1.7 1.6 2.4 1.2 1.4 3.2 1.9 5 1.8 1.8 0 3.5-0.5 5.2-0.6-0.4 1.4-1.3 2.6-2.4 3.5-1.2 0.9-2.6 1.5-4.1 1.5z"/>
	<path id="Layer" class="s2" d="m436.9 291.4c-0.8 1.6-2.2 2.8-3.9 3.4-1.7 0.6-3.6 0.5-5.2-0.2-1.7-0.8-3-2.1-3.7-3.8-0.7-1.6-0.7-3.5-0.1-5.2q0.9 0.6 1.6 1.4c0.6 0.8 1.1 1.7 1.9 2.5 1.4 1.5 3.7 2.1 5.8 2.1q1.8 0 3.6-0.2z"/>
	<path id="Layer" fill-rule="evenodd" class="s10" d="m199.9 226.3q0.4 0.9 0.4 1.9c0 1.1-0.4 2.1-1.1 2.9-0.7 0.8-1.7 1.4-2.7 1.5v0.1c-0.1 2.2-0.5 4.4-1.2 6.4q-0.5 1.3-0.6 2.7 0 0.9-0.2 1.7-0.1 1.1-0.4 2.2-0.5 1.6-1.1 3.1-0.2 0.5-0.4 1.1-0.1 0.7-0.3 1.3-0.1 0-0.1 0c0 0.5-0.1 1-0.3 1.4-0.3 0.3-0.5 0.5-0.8 0.8-0.8 1.1-0.5 2.6-0.8 4-0.3 0.9-0.9 1.8-1.6 2.4q-0.4 0.4-1 0.6-0.5 0.2-1.1 0.2-0.3 0.2-0.6 0.4c-1 0.5-2.1 0.6-3.1 0.6q-2.1 0-4.2-0.2c-1 0-2.1-0.3-3-0.8q-0.8-0.5-1.3-1.3c-1.4-0.4-2.6-1-3.9-1.5q-4-1.6-8.2-2.9c-1.1-0.4-2.3-0.5-3.5-0.4q-1.6 0.5-2.9 1.4-2.3 1.5-5 2.5 0.2 0.6 0.5 1.1 0.6 1.1 0.7 2.3 0 0.5 0.1 0.9c0.2 0.5 0.5 1.1 0.3 1.5-0.1 0.4-0.6 0.5-1 0.5q-1.4 0-2.7 0.2-0.3 0.2-0.6 0.1c-0.3 0-0.5-0.3-0.8-0.4q-0.2-0.1-0.4-0.1-0.7 0.1-1.4 0.2-0.4 0.2-0.7 0.3-0.8 0.1-1.6 0.2-1.8 0.2-3.6 0.3-0.5 0.1-1 0-0.2 0-0.4-0.2-0.2-0.1-0.3-0.3-0.1-0.3-0.1-0.5 0-0.3 0.2-0.6 0.3-0.4 0.7-0.7 0.5-0.4 1.1-0.6 0.4-0.1 0.8-0.3 0.6-0.3 1-0.8c0.4-0.3 0.8-0.5 1.2-0.7q0.6-0.4 1-0.9l-0.4 0.1c-1 0.3-1.9 0.9-2.9 0.8-0.8-0.1-1.5-0.6-2.3-0.4q-0.4 0.2-0.8 0.2-0.2 2.3-0.9 4.5-0.1 0.2-0.3 0.4-0.2 0.1-0.4 0.1c-1.6 0-3.2-0.4-4.6-1.1v-0.5q-3.1-0.6-6-1.8-0.7-0.2-1.3-0.6-0.3-0.3-0.4-0.6-0.2-0.3-0.3-0.7 0-0.4 0.2-0.7 0.2-0.3 0.5-0.4 0.3-0.1 0.6-0.1l2.3 0.2q0.5 0.1 1 0 0.4-0.2 0.8-0.4 1.1-0.6 2.3-0.9 0.8-0.1 1.4-0.6c0.3-0.3 0.5-0.7 0.8-1 0.3-0.3 0.7-0.4 0.9-0.8 0.1-0.1 0.2-0.4 0.3-0.5q0.1-0.2 0.2-0.3 0.1-0.1 0.3-0.1 0.7 0.8 1 1.9l0.4-0.1q0.1-0.3 0.3-0.6c0.2-0.3 0.7-0.2 1.1-0.2q1.4 0 2.7-0.6l4.2-1.6q3-1.2 6-2.3c2.8-3.6 5.8-7.1 8.1-11.1q0.9-1.4 1.9-2.7 0.3-0.3 0.6-0.5 0.3 0 0.6 0 1.3 0.2 2.6 0.7 0.6-0.2 1.2-0.2 0-0.2-0.1-0.4l-0.3-1.5q-0.2-0.9-0.3-1.8 0-0.3 0-0.7 0.1-0.1 0.2-0.3 0.1-0.1 0.2-0.2l-1.1-2.1 1.3 0.2 4.2 6.5-1 0.2q0.8 0.8 1.8 1.3 0.9 0.3 1.7 0.8-0.1-0.6-0.3-1.1 0.6 0.5 1.4 0.7 0.9 0.2 1.7 0.1 0.1-0.7 0.6-1.2c0.3-0.2 0.6-0.3 0.7-0.7 0.1-0.4-0.3-0.9-0.1-1.3 0.1-0.4 0.7-0.4 1-0.6q0.3-0.3 0.5-0.7 0.2-0.4 0.6-0.6 0.1-0.1 0.3-0.2c0.4-0.4 0.3-1 0.3-1.5 0.1-1.2 1-2.1 1.3-3.3 0.2-0.6 0.2-1.2 0.3-1.8q0.3-1.1 0.9-2.1 0.1-0.3 0.4-0.6l0.2-0.1c-0.9-0.4-1.5-1-2-1.8-0.5-0.8-0.8-1.8-0.8-2.7q0-1.1 0.5-2.2l-0.3-0.1h-0.2c-1.5-0.5-2.7-1.4-3-2.4q-0.2-0.5-0.1-1.1c0.4-1.3 2.2-1.9 4.3-1.4 0.2-1.5 0.9-2.9 2.1-3.9 1.1-1.1 2.6-1.6 4.1-1.7h1q0.4 0.1 0.8 0.2c1.1 0.4 2.1 1 2.9 1.9 0.8 0.9 1.3 1.9 1.5 3.1 1.6 0.2 3 1 4 2.2 1 1.2 1.6 2.7 1.6 4.3 0.7 0.5 1.3 1.2 1.7 2 0.3 0.8 0.5 1.7 0.5 2.6 0 1-0.2 2-0.7 2.9zm-19.9 22.3q-0.2-0.1-0.4-0.2-0.2-0.1-0.4-0.2 0.5 0.6 1 1.1-0.1-0.4-0.2-0.7zm-1.6-1.1q0 0 0 0 0 0 0 0zm0 0q0.4-0.4 0.8-0.9-2-1-3.9-2.1c-1.1-0.6-2.2-1.2-3.3-1.8 2.1 1.7 4.4 3 6.4 4.8zm0.8-4.4q-0.2 0.2-0.4 0.4l0.5 0.2q0-0.3 0-0.7l-0.1 0.1zm-12.2 5.2c-1.1-1.2-2.4-2.2-3.2-3.6q-0.9 1.7-2.1 3.1c1.8 0.1 3.5 0.3 5.3 0.5z"/>
	<path id="Layer" class="s11" d="m164.5 230.9l1.3 0.3 4.3 6.3-1.9 0.3z"/>
	<path id="Layer" class="s12" d="m136 256.8q0.7-0.2 1.4 0 0.7 0.3 1.2 0.9 0.5 0.5 0.9 1.1-2.1 0.8-4.2 1.2-0.8-1.6-1.3-3.3 1 0.1 2 0.1z"/>
	<path id="Layer" class="s11" d="m137.4 258.4c0.4 0.2 0 0 0.1 0.4q0.1 0.6 0.1 1.3-0.1 2.5-1 4.9 0 0.3-0.2 0.5-0.2 0.1-0.4 0c-1.6 0-3.2-0.3-4.6-1v-0.5q-3.2-0.6-6.1-1.7-0.7-0.3-1.3-0.7-0.3-0.2-0.5-0.5-0.2-0.3-0.2-0.7-0.1-0.4 0.1-0.7 0.2-0.3 0.6-0.5 0.3 0 0.6 0l2.2 0.2q0.5 0.1 1 0 0.5-0.2 0.9-0.4 1.1-0.6 2.3-0.9 0.8 0 1.4-0.5c0.3-0.3 0.5-0.7 0.8-1 0.3-0.3 0.7-0.5 0.9-0.8 0.1-0.2 0.2-0.4 0.3-0.6q0.1-0.1 0.2-0.2 0.1-0.1 0.3-0.1 0.8 0.8 1.1 1.9 0.2 0.6 0.5 1 0.4 0.4 0.9 0.6"/>
	<path id="Layer" class="s11" d="m185.6 253.6q0.3 0.6 0.7 1.1c0.3 0.6 0.8 1.2 0.8 1.9-0.1 1.2-1.2 1.9-2.3 2.3-3.1 1.2-6.5 1.4-9.7 0.6q-2.2-0.7-4.3-1.6-4-1.6-8.2-2.8c-1.2-0.4-2.4-0.6-3.6-0.4q-1.5 0.4-2.8 1.3c-2.4 1.5-5 2.8-7.7 3.2-1.6 0.3-3.3 0.3-4.9 0.9-0.9 0.3-1.9 0.9-2.8 0.8-0.9-0.1-1.6-0.6-2.4-0.4q-0.4 0.1-0.8 0.2c-0.4-0.1-0.7-0.5-0.8-0.9-0.5-1.1-0.8-2.6-0.1-3.7 0.2-0.3 0.7-0.2 1.1-0.2q1.4-0.1 2.7-0.6l4.3-1.6c3.7-1.4 7.5-2.8 11.1-4.5q1.2-0.6 2.4-1 1.3-0.2 2.6-0.1c6.7 0.2 13.4 2.1 20.1 1.7 2-0.1 3.4 2.2 4.6 3.8z"/>
	<path id="Layer" class="s2" d="m185.6 253.6q0.3 0.6 0.7 1.1c0.3 0.6 0.8 1.2 0.8 1.9-0.1 1.2-1.2 1.9-2.3 2.3-3.1 1.2-6.5 1.4-9.7 0.6q-2.2-0.7-4.3-1.6-4-1.6-8.2-2.8c-1.2-0.4-2.4-0.6-3.6-0.4q-1.5 0.4-2.8 1.3c-2.4 1.5-5 2.8-7.7 3.2-1.6 0.3-3.3 0.3-4.9 0.9-0.9 0.3-1.9 0.9-2.8 0.8-0.9-0.1-1.6-0.6-2.4-0.4q-0.4 0.1-0.8 0.2c-0.4-0.1-0.7-0.5-0.8-0.9-0.5-1.1-0.8-2.6-0.1-3.7 0.2-0.3 0.7-0.2 1.1-0.2q1.4-0.1 2.7-0.6l4.3-1.6c3.7-1.4 7.5-2.8 11.1-4.5q1.2-0.6 2.4-1 1.3-0.2 2.6-0.1c6.7 0.2 13.4 2.1 20.1 1.7 2-0.1 3.4 2.2 4.6 3.8z"/>
	<path id="Layer" class="s12" d="m148.2 255.4c0.3-0.5 0.6-1.2 1.3-1.2q1.3 0.1 2.5 0.8 0.1 0 0.1 0.1 0 0.1 0 0.1c-0.2 1.2-1.4 1.9-1.9 2.9q-1.7-0.5-3.2-1c0.2 0.1 1.1-1.4 1.2-1.7z"/>
	<path id="Layer" class="s11" d="m151.4 257.1q-0.1 0.4-0.2 0.7c-0.3 0.6 0.2 1.2 0.5 1.8q0.5 1 0.6 2.2 0.1 0.5 0.2 1c0.1 0.5 0.5 1 0.3 1.4-0.2 0.4-0.7 0.5-1.1 0.5q-1.4 0-2.7 0.3-0.3 0.1-0.6 0c-0.3 0-0.5-0.3-0.8-0.4q-0.2 0-0.4 0-0.7 0-1.4 0.2l-0.8 0.2q-0.7 0.2-1.5 0.2-1.9 0.2-3.7 0.3-0.5 0.1-0.9 0-0.3 0-0.5-0.2-0.1-0.1-0.3-0.3-0.1-0.2-0.1-0.5 0-0.3 0.2-0.5 0.3-0.5 0.8-0.8 0.5-0.3 1.1-0.5 0.4-0.1 0.8-0.3 0.5-0.4 1-0.8c0.4-0.3 0.8-0.5 1.2-0.8 0.8-0.6 1.5-1.4 1.8-2.4q0.6-1.5 0.9-3c0.1-0.3 0.2-0.6 0.5-0.7 0.3 0 0.4 0.4 0.6 0.6q0.3 0.4 0.7 0.7 0.4 0.3 0.8 0.4c0.6 0.1 2.9-0.3 3 0.7z"/>
	<path id="Layer" class="s12" d="m172.7 239.8q0.2 0.4 0.2 0.8c0 0.1 0 1.1 0 1.1-1.1-0.8-2.4-1.3-3.8-1.5q-0.5 0-1-0.3-0.3-0.1-0.6-0.4-0.4-0.4-0.9-0.8-0.3-0.2-0.5-0.6-0.2-0.3-0.2-0.7l-0.4-1.5q-0.2-0.8-0.3-1.7 0-0.3 0.1-0.7 0-0.2 0.1-0.3 0.2-0.1 0.3-0.2 0.2 0 0.3 0.1 0.2 0.1 0.3 0.2c0.7 0.6 1.2 1.4 1.6 2.2q0.1 0.4 0.3 0.8c0.5 1.2 1.5 2.2 2.7 2.7q0.9 0.2 1.8 0.8z"/>
	<path id="Layer" class="s2" d="m172.7 239.8q0.2 0.4 0.2 0.8c0 0.1 0 1.1 0 1.1-1.1-0.8-2.4-1.3-3.8-1.5q-0.5 0-1-0.3-0.3-0.1-0.6-0.4-0.4-0.4-0.9-0.8-0.3-0.2-0.5-0.6-0.2-0.3-0.2-0.7l-0.4-1.5q-0.2-0.8-0.3-1.7 0-0.3 0.1-0.7 0-0.2 0.1-0.3 0.2-0.1 0.3-0.2 0.2 0 0.3 0.1 0.2 0.1 0.3 0.2c0.7 0.6 1.2 1.4 1.6 2.2q0.1 0.4 0.3 0.8c0.5 1.2 1.5 2.2 2.7 2.7q0.9 0.2 1.8 0.8z"/>
	<ellipse id="Layer" class="s11" cx="184.6" cy="225.9" rx="1.6" ry="1.7"/>
	<path id="Layer" class="s11" d="m184.3 226.2c-0.1 1.6-0.8 3.1-1.6 4.6-0.3 0.7-1.1 1.4-1.2 2.3q-0.2 2.1-0.7 4.2-0.3 0.9-0.4 2 0 0.8-0.1 1.6c-0.1 1-0.9 1.8-1.5 2.5q-0.4 0.4-0.8 0.6c-0.6 0.2-1.1 0.2-1.7 0q-1.9-0.5-3.8-0.7 0.1-0.2 0.2-0.5 0.1-0.3 0-0.6 0.1-1.8-0.4-3.6 0.6 0.6 1.4 0.8 0.9 0.2 1.7 0 0.2-0.6 0.6-1.1c0.3-0.3 0.6-0.4 0.7-0.8 0.1-0.4-0.3-0.9-0.1-1.2 0.1-0.4 0.7-0.4 1-0.6q0.3-0.3 0.5-0.6 0.2-0.4 0.6-0.7 0.2-0.1 0.3-0.2c0.4-0.4 0.3-1 0.4-1.5 0.1-1.1 0.9-2.1 1.2-3.2 0.2-0.6 0.3-1.2 0.4-1.8q0.3-1.1 0.9-2 0.1-0.4 0.4-0.6c0.4-0.2 0.9-0.3 1.3-0.2 0.5 0.1 0.7 0.7 0.7 1.3z"/>
	<path id="Layer" class="s2" d="m184.3 226.2c-0.1 1.6-0.8 3.1-1.6 4.6-0.3 0.7-1.1 1.4-1.2 2.3q-0.2 2.1-0.7 4.2-0.3 0.9-0.4 2 0 0.8-0.1 1.6c-0.1 1-0.9 1.8-1.5 2.5q-0.4 0.4-0.8 0.6c-0.6 0.2-1.1 0.2-1.7 0q-1.9-0.5-3.8-0.7 0.1-0.2 0.2-0.5 0.1-0.3 0-0.6 0.1-1.8-0.4-3.6 0.6 0.6 1.4 0.8 0.9 0.2 1.7 0 0.2-0.6 0.6-1.1c0.3-0.3 0.6-0.4 0.7-0.8 0.1-0.4-0.3-0.9-0.1-1.2 0.1-0.4 0.7-0.4 1-0.6q0.3-0.3 0.5-0.6 0.2-0.4 0.6-0.7 0.2-0.1 0.3-0.2c0.4-0.4 0.3-1 0.4-1.5 0.1-1.1 0.9-2.1 1.2-3.2 0.2-0.6 0.3-1.2 0.4-1.8q0.3-1.1 0.9-2 0.1-0.4 0.4-0.6c0.4-0.2 0.9-0.3 1.3-0.2 0.5 0.1 0.7 0.7 0.7 1.3z"/>
	<path id="Layer" class="s11" d="m187.7 256.9q0.4 0.8 0.5 1.6c0 0.5-0.2 1.1-0.5 1.5-0.3 0.5-0.7 0.8-1.2 1-1 0.5-2.1 0.7-3.2 0.6q-2.1 0.1-4.2-0.1c-1 0-2-0.3-3-0.8q-1-0.7-1.7-1.8l-3.7-4.7c-0.7-1-1.5-1.9-2.1-2.9-0.4-0.7-0.8-1.3-1.2-1.9-1.2-1.6-2.9-2.7-3.9-4.3-1.3 2.3-3.2 4.2-5.1 6l-3.3 3.1-3.1 3q-0.3 0.4-0.9 0.6c-0.8 0.2-1.5-0.7-1.9-1.5l-0.6-1.3q-0.2-0.3-0.2-0.5 0.1-0.2 0.2-0.4c3.4-4.5 7.5-8.7 10.4-13.6q0.8-1.4 1.9-2.7 0.2-0.3 0.6-0.4 0.3-0.1 0.6 0c1.7 0.1 3.3 0.7 4.8 1.7 1.6 1 3 2.5 4.5 3.8 2.3 1.9 4.9 3.3 7.1 5.4 1.1 1 2.2 2.3 3.6 3 2.5 1.2 4.2 3.2 5.6 5.6z"/>
	<ellipse id="Layer" class="s13" cx="185.6" cy="227" rx="1.3" ry="1.3"/>
	<path id="Layer" class="s12" d="m184.5 225.2c-0.2-0.4 0.4-0.6 0.6-0.8 0.7-0.4 1.5-0.8 2.2-1.2q0.7-0.5 1.3-1.1-0.1 0.7 0.2 1.3 0.3 0.4 0.6 0.8l1 1.1q0.4 0.5 1 0.9 0.2 0.2 0.6 0.3 0.3 0 0.7-0.1c-0.8 1.4-2.2 2.4-3.5 3.1-1.8 0.9-3.6 1.7-5.6 1.6q0.6-0.7 1.1-1.5 0.5-0.8 0.8-1.7c0.2-0.6 0.1-1.2-0.2-1.8-0.2-0.4-0.7-0.6-0.8-0.9z"/>
	<path id="Layer" class="s2" d="m184.5 225.2c-0.2-0.4 0.4-0.6 0.6-0.8 0.7-0.4 1.5-0.8 2.2-1.2q0.7-0.5 1.3-1.1-0.1 0.7 0.2 1.3 0.3 0.4 0.6 0.8l1 1.1q0.4 0.5 1 0.9 0.2 0.2 0.6 0.3 0.3 0 0.7-0.1c-0.8 1.4-2.2 2.4-3.5 3.1-1.8 0.9-3.6 1.7-5.6 1.6q0.6-0.7 1.1-1.5 0.5-0.8 0.8-1.7c0.2-0.6 0.1-1.2-0.2-1.8-0.2-0.4-0.7-0.6-0.8-0.9z"/>
	<path id="Layer" class="s13" d="m185.4 226.3q-0.3 0.4-0.3 0.9 0 0.6 0.3 1c0 0.1 0.2 0.5 0.3 0.5q0.1 0 0.1 0 0.1-0.1 0.1-0.1 0.7-0.7 1.3-1.5c0.4-0.5 0.9-0.9 1.5-1 0.8-0.1 1.6 0.2 2.2 0.6q0.4 0.2 0.7 0.6 0.2 0.4 0.3 0.9 0.3 2.6 0.2 5.2 0.1 1.9-0.2 3.8c-0.2 0.7-0.4 1.3-0.4 1.9q-0.1 0.9-0.1 1.8v2.4q0 0.7 0.1 1.3c0.1 0.6 0.3 1.1 0.5 1.6q0.3 0.9 0.3 1.8l0.4 2.5c0.1 0.8 0.2 1.6-0.3 2.3-0.2 0.3-0.5 0.5-0.7 0.8-0.8 1.1-0.6 2.6-0.9 3.9-0.3 0.9-0.8 1.8-1.6 2.4q-0.4 0.4-1 0.6-0.5 0.2-1.1 0.2c-1-0.2-1.6-1.3-1.9-2.3-0.3-1-0.4-2.1-1-2.9q-0.8-1-1.9-1.6c-0.7-0.5-1.3-1.2-1.5-2-0.1-0.4 0-0.7-0.1-1.1q0-0.7-0.5-1.3-0.4-0.6-1.1-0.8c-0.5-0.2-1.1-0.3-1.4-0.8 0.7-0.5 1.3-1.2 1.5-2q0.3-1.3 0.4-2.6l0.1-2.9c0.1-1.3 0.2-2.6 0.7-3.8 0.3-0.5 0.6-1 0.9-1.5q0.5-1.1 0.9-2.2 0.6-1.8 1.2-3.6 0.2-0.9 0.6-1.7c0.3-0.6 0.8-1.2 1.4-1.3z"/>
	<path id="Layer" class="s11" d="m178.9 236.8c0.1-1.3 0.2-2.8 1.1-3.7 0.3-0.3 0.6-0.5 0.9-0.8 0.7-0.6 1.1-1.4 1.4-2.3 0.3-0.8 0.5-1.7 0.8-2.5 0.1-0.4 0.4-0.8 0.7-1 0.4-0.2 0.6-1.2 0.8-0.9 0.1 0.2 0.5 0.1 0.5 0.3 0 0.5-0.2 2.4-0.2 2.9q0 0.5-0.1 1-0.1 0.4-0.3 0.8l-1.5 3.3q-1.1 2.4-1.7 5c-0.1 1.3-0.1 2.7-0.8 3.8q-0.3 0.3-0.5 0.6-0.1 0.4-0.1 0.7l-0.2 1.2h-0.8c-0.1 0 0-7.6 0-8.4z"/>
	<path id="Layer" class="s11" d="m192.2 225.6c1.4 0.9 2.6 2.1 3.4 3.6 0.3 0.6 0.5 1.3 0.9 2q0.3 0.5 0.5 1.1 0.1 0.4 0 0.9c-0.1 2.1-0.5 4.3-1.2 6.3q-0.4 1.3-0.5 2.6-0.1 0.9-0.2 1.8-0.2 1.1-0.5 2.1-0.5 1.6-1.1 3.1-0.2 0.5-0.4 1 0 0.7-0.3 1.3-0.2 0.4-0.5 0.6c-1.2 1-2.6 1.5-3.9 2.2-0.7 0.4-1.5 0.9-2.2 1.2-0.8 0.4-1.7 0.6-2.5 0.5q0.5-2.2 0.2-4.4l-0.8-10q-0.2-1.5-0.1-3c0.1-1.2 0.5-2.4 0.7-3.7q0-0.9 0.2-1.8c0.7-1.8 3.1-2.3 4-3.9q0.5-1.1 0.7-2.3 0.1-0.6 0.5-1.1 0.3-0.5 0.9-0.8c0.7-0.3 1.5 0.2 2.2 0.7z"/>
	<path id="Layer" class="s12" d="m174.8 242.3q2 1 4.1 1.7 1.1 0.2 2.1 0.6c0.4 0.3 0.5 1.1 0.5 1.6q0 1-0.1 2-3.3-1.6-6.5-3.4c-2.4-1.4-4.9-2.9-7.6-3.2q-0.8 0-1.4-0.1-0.9-0.2-1.6-0.8-0.4-0.3-0.6-0.7-0.2-0.4-0.2-0.9 0.1-0.4 0.4-0.7 0.3-0.3 0.6-0.4 0.8-0.2 1.6-0.2 1.1 0 2.3 0.2c0.8 0.2 1.4 0.6 2 1.2 0.2 0.2 0.4 0.5 0.6 0.8q0.7 0.7 1.5 1.2 1.1 0.6 2.3 1.1z"/>
	<ellipse id="Layer" class="s12" cx="184.6" cy="220.5" rx="4.9" ry="5"/>
	<path id="Layer" class="s11" d="m194.6 231.5q0.5 1.1 0.6 2.3 0.3 1.2 0.2 2.4-0.1 1.4-0.5 2.8-0.2 0.8-0.6 1.6-0.4 0.6-0.8 1.1l-2.8 3.4q-0.7 0.8-1.3 1.7c-0.3 0.5-0.5 1-0.8 1.4q-0.9 1.1-2.1 1.8-0.7 0.5-1.5 0.6c-0.8 0.1-1.6-0.4-2.3-0.3q-0.6 0.2-1.2 0.5-0.3 0.2-0.6 0.2-0.4-0.1-0.6-0.3-0.2-0.2-0.3-0.4-0.6-1.5-0.7-3.2-0.1-0.8 0.3-1.5 0.3-0.8 1-1.3 0.2-0.2 0.5-0.2 0.3 0.1 0.5 0.2 0.6 0.3 1.3 0.5 0.3 0 0.6-0.1 0.4-0.1 0.6-0.4c0.3-0.4 0.2-1.2 0.7-1.5 0.2-0.2 0.6-0.2 0.7-0.5 0-0.1 0-0.2 0-0.3 0.1-0.4 0.8-0.5 0.9-0.9q0.1-0.2 0.1-0.4 0.1-0.4 0.4-0.6c1-1.1 1-2.8 1.5-4.2 0.5-1.3 1.4-2.3 2-3.6q0.4-1 1-1.8c1.1-1.3 2.6-0.3 3.2 1z"/>
	<path id="Layer" class="s14" d="m200.5 226.9q0.4 0.9 0.4 1.9 0 0.8-0.3 1.6-0.4 0.7-0.9 1.3-0.6 0.6-1.4 0.9-0.7 0.3-1.6 0.3-0.8 0-1.6-0.3-0.7-0.3-1.3-0.9-0.6-0.6-0.9-1.3-0.3-0.8-0.3-1.6 0-0.3 0-0.5c-0.7-0.6-1.2-1.3-1.5-2.1-1.2-0.3-2.3-0.9-3.1-1.8-0.9-0.8-1.4-1.9-1.7-3.1q-1.4-0.2-2.5-0.9-1.1-0.8-1.9-1.9-1.1 0.1-2.1-0.2c-2.1-0.6-3.6-2.2-3.2-3.5 0.3-1.2 2.2-1.8 4.2-1.4 0.2-1.5 1-2.8 2.1-3.9 1.1-1 2.5-1.5 4-1.6 1.6 0 3 0.5 4.2 1.4 1.2 1 2 2.3 2.3 3.8 1.5 0.2 2.9 1 3.9 2.2 1.1 1.1 1.6 2.7 1.7 4.2 0.7 0.5 1.3 1.2 1.6 2 0.4 0.8 0.6 1.7 0.6 2.5 0.1 1-0.2 2-0.7 2.9z"/>
	<path id="Layer" class="s2" d="m181 218.5q-0.6 0-1.2-0.2c-2.1-0.6-3.6-2.2-3.3-3.5 0.4-1.2 2.3-1.8 4.3-1.4 0.2-1.5 1-2.9 2.2-3.9 1.1-1 2.6-1.6 4.1-1.6q1 0 1.9 0.3h-0.5c-1.5 0-3 0.6-4.1 1.6-1.2 1-2 2.4-2.2 3.9-2.1-0.5-3.9 0.1-4.3 1.4-0.3 1.3 1.1 2.8 3.1 3.4z"/>
	<path id="Layer" class="s2" d="m194.7 231.5c0.5 0.7 1.2 1.3 2 1.6-1.1 0-2.2-0.5-3-1.3-0.8-0.8-1.2-1.9-1.2-3q0-0.3 0-0.5c-0.6-0.6-1.1-1.3-1.4-2.1-1.2-0.3-2.3-0.9-3.1-1.8-0.9-0.9-1.5-2-1.7-3.1q-1.3-0.2-2.4-0.9-1.1-0.6-1.9-1.7 0.6 0.1 1.2 0.1 0.8 1.1 2 1.8 1.1 0.7 2.4 0.9c0.3 1.2 0.9 2.3 1.7 3.2 0.9 0.9 2 1.5 3.1 1.8 0.4 0.8 0.9 1.5 1.5 2q0 0.3 0 0.5c0 0.9 0.3 1.8 0.8 2.5z"/>
	<path id="Layer" class="s12" d="m185.6 222c-0.3-0.4-0.3-1 0-1.2 0.4-0.3 0.9-0.1 1.2 0.3 0.4 0.5 0.4 1 0.1 1.3-0.4 0.2-0.9 0.1-1.3-0.4z"/>
</svg>